<svg width="161" height="54" viewBox="0 0 161 54" xmlns="http://www.w3.org/2000/svg"><title>Logo_unleashed_white_Q</title><g fill="#FFF" fill-rule="evenodd"><path d="M3.852 1.944c2.494.42 3.753.896 3.753 1.456.716 1.092 1.087 2.212 1.087 3.36v2.687c0 .812-.124 2.24-.395 4.255.271 2.296.518 4.004.79 5.152 0 .028-.025.532-.099 1.455.395 2.744.593 5.348.593 7.84.395 2.239.864 3.359 1.382 3.359 0 .168.297.28.89.335l.296-.447v-.336c0-.252-.025-.42-.1-.56l.297-2.352v-.336c0-.672-.272-2.1-.79-4.255.074-1.484.099-2.436.099-2.912-.272-1.315-.395-2.435-.395-3.36v-1.23c0-1.653.296-3.809.889-6.496 0-2.856.32-4.787.987-5.823.939-.98 2.1-1.456 3.457-1.456a4.496 4.496 0 0 1 1.778 1.792l.099 1.344v2.8c0 .307.025.727.099 1.231-.198.84-.297 1.736-.297 2.688v.672c0 .42.223 1.343.692 2.8v.111c-.123.84-.198 1.484-.198 1.904 0 .252.124.812.395 1.68a13.628 13.628 0 0 0-.098 1.567c.197.644.296 1.26.296 1.792l-.099 1.344c.321 1.036.494 2.184.494 3.471v.784c0 1.036-.297 2.632-.889 4.815 0 2.212-.963 3.836-2.864 4.816 0 .252-.815.476-2.47.671-1.234.756-2.74 1.12-4.543 1.12-2.691 0-4.963-1.54-6.815-4.59C.913 32.262.296 29.38.296 26.468c-.099 0-.197-.812-.296-2.464 0-.364.074-1.092.197-2.128a78.809 78.809 0 0 1-.098-3.92V14.15c0-.307.173-1.54.494-3.695C.395 9.979.197 8.775 0 6.87V6.76c0-.56.099-.867.296-.895l-.099-.56c.42-.868.717-1.652.89-2.352.074 0 .962-.336 2.666-1.008h.1M34.174 21.845h.099v-.302h-.099v.302zm3.26-20.731c1.061 0 1.58.377 1.58 1.107.099 0 .198.73.296 2.214.395.88.667 1.585.79 2.113l-.197 4.73c.197.956.296 2.164.296 3.623v.1c0 .856-.099 1.535-.296 2.013.123.654.197 1.56.197 2.718v.1c0 1.183-.098 2.038-.296 2.617.074.578.099.956.099 1.107 0 2.893-.124 4.83-.395 5.837.074 1.333.099 2.188.099 2.616 0 .227-.099.931-.297 2.113l.1 1.41c0 1.861-1.803 3.17-5.433 3.924-1.037 0-1.951-.704-2.766-2.113-.272-1.082-.913-3.246-1.975-6.44l-1.482-5.335h-.098c-.075.68-.1 1.183-.1 1.51v.402c.124 3.523.198 5.46.198 5.837-.148 2.818-.32 4.353-.494 4.63-.888.603-1.703.905-2.469.905-2.296 0-3.457-1.283-3.457-3.824.198-2.893.297-4.554.297-4.931-.272-1.987-.396-3.321-.396-4.025 0-.227.074-.68.198-1.41l-.099-.603c.074-.68.099-1.233.099-1.61 0-.63-.074-1.485-.198-2.617.321-3.698.593-7.447.79-11.271a56.265 56.265 0 0 1-.098-2.818c0-1.686.32-2.516.987-2.516.395-.201.89-.302 1.482-.302 2.642 0 3.95.302 3.95.906.1.428.52 1.057 1.285 1.912.296.554.593 1.334.889 2.315.666.755.987 1.836.987 3.22.79.78 1.186 1.988 1.186 3.623.518.73.963 2.44 1.284 5.132.197.05.296.428.296 1.108h.099c0-.478.173-2.39.494-5.737 0-1.736.024-2.742.098-3.019-.074-.327-.098-.78-.098-1.308v-.604c0-.352.024-.654.098-.906a4.788 4.788 0 0 1-.098-1.006V7.253c.197-1.485.296-2.466.296-2.919V2.221c0-.579.593-.956 1.778-1.107h.494zM45.484 1.931l.197.099c.074 0 .099-.025.099-.099l.494.099c.123 0 .197-.025.197-.099 2.395.223 3.63.866 3.754 1.881l.592 6.437v1.584c0 1.287-.123 2.946-.395 4.951.123.965.197 1.708.197 2.179v3.663c0 .62-.024 1.263-.098 1.882.074.297.098.817.098 1.584 0 .272-.123 1.213-.394 2.871l.394 3.961c-.123.62-.197 1.114-.197 1.486v.099c.889.52 2.173.916 3.852 1.188.518.644.79 1.238.79 1.782 0 .595-.47.99-1.383 1.189a4.216 4.216 0 0 1-2.37.693h-.395l-.593-.1c-.098.075-.42.15-.988.199-3.407 0-5.605-.693-6.617-2.08-.321-1.114-.494-1.98-.494-2.574 0-1.015.025-2.649.099-4.852 0-.1-.025-.57-.099-1.387.074-.47.099-1.213.099-2.277h.099c-.124-.346-.198-1.04-.198-2.08v-1.386c0-.866.074-1.46.198-1.782a.59.59 0 0 1-.099-.297c0-.273.074-.94.197-1.98a13.238 13.238 0 0 1-.197-2.278v-.495c0-2.451.222-4.877.691-7.229.173-2.649.321-4.109.494-4.357-.124-.495-.198-.792-.198-.89 0-.62.667-1.14 1.976-1.585h.198M63.266 3.367c.271-.124.691-.198 1.235-.198 1.703.173 3.284.297 4.79.37.963.52 1.432 1.165 1.432 1.957-.864 1.757-2.593 2.624-5.16 2.624h-1.161l-.47.099v-.1l-.197.1a.698.698 0 0 0-.37-.1c-.198.496-.297.966-.297 1.387v.198c0 .495.025 1.139.099 1.956l-.469 1.312c.099.916.222 1.386.37 1.386s.618-.025 1.433-.099c2.493.57 3.728.99 3.728 1.213.395.346.592.718.592 1.139-.42.99-1.21 1.485-2.395 1.485-.197 0-1.16.322-2.889.94h-.37l.099.174c0 .173-.025.272-.099.272.074.743.099 1.263.099 1.585v1.41c0 .422-.074 1.387-.198 2.897.074.495.198.94.395 1.312l-.098 1.114v.916c0 2.327.123 3.936.37 4.852a13.338 13.338 0 0 0-.099 1.51v.173c0 .372.222.57.667.57 1.16 0 2.345-.074 3.556-.198 1.53 0 2.296.371 2.296 1.114-.667 1.856-2.84 2.723-6.519 2.648-2.913.223-4.963-.05-6.173-.841-.716-3.293-1.086-6.536-1.086-9.729 0-.99.074-2.203.197-3.64-.123-.444-.271-1.46-.395-3.069l.198-2.153c-.074-.149-.124-1.214-.198-3.169l.47-6.065c-.124-.396-.174-.669-.174-.842v-.371c0-.297.025-.594.1-.916-.075-.421-.124-.718-.198-.842.074-.52.098-.965.098-1.312V4.481c0-.52.692-1.065 2.1-1.585.715 0 1.06-.025 1.06-.099 1.878.174 3.088.372 3.63.57M79.367 13.764c-.32 2.921-.716 5.57-1.185 7.922v.198c0 .569.025 1.163.099 1.782-.198.99-.297 1.857-.297 2.574.667.075 1.16.1 1.482.1h.889v-.1c0-.321-.074-1.064-.198-2.178.198-1.04.297-1.906.297-2.575v-.495c0-2.104-.321-4.53-.988-7.228h-.099zm1.087-11.289c1.11 0 2.37 1.412 3.753 4.258 0 .669.321 1.51.988 2.476.271 1.411.518 2.376.691 2.871.321.99.494 1.709.494 2.179 0 .173-.074.371-.198.594.272 0 .494 1.015.692 3.07.518 1.56.79 3.119.79 4.654.173.52.32 1.213.395 2.08l-.296 1.781c.271.718.395 1.189.395 1.387 0 .124-.074.47-.198.99.198.47.297.891.297 1.287a14.612 14.612 0 0 0-.1 1.188c.198 0 .396.595.593 1.783l-.098.198v.099c.197 2.698.296 4.134.296 4.357v.495c0 .99-.272 1.485-.79 1.485-.593.322-1.358.496-2.272.496-1.556 0-2.494-.322-2.766-.99-1.432-2.848-2.246-5.917-2.469-9.21-.074-.198-.79-.322-2.173-.396h-.592c-.074 0-.173.124-.297.396l.1.198v.594c0 .347-.1.867-.297 1.585.148.99.247 1.485.296 1.485-.123.57-.42 1.312-.889 2.179 0 1.237-.222 1.955-.691 2.178-.519.396-.914.594-1.185.594-1.852 0-2.964-.767-3.358-2.277V35.35c0-1.757.222-4.035.69-6.832 0-.371-.024-1.213-.098-2.476.519-2.871 1.284-7.6 2.272-14.16.864-3.639 1.284-5.866 1.284-6.634.271-.668.914-1.188 1.876-1.584.223-.793 1.16-1.189 2.766-1.189h.099zM104.875 7.204c.271.817.469 2.4.592 4.753 0 .718-.987 1.089-2.963 1.089-1.309-.272-2.173-.668-2.568-1.188-.271-.446-.593-1.436-.988-2.971-1.259-1.659-2.197-2.475-2.765-2.475v.693c0 .94.37 2.4 1.087 4.357 2.123 3.688 3.63 6.783 4.543 9.308.197 1.114.592 2.599 1.185 4.455.321 1.758.494 2.699.494 2.773v.693c0 .866.074 1.98.197 3.367-.197.644-.32 1.659-.395 3.07-.617 1.609-1.53 3.094-2.765 4.455-.42.793-1.333 1.189-2.766 1.189-.37 0-.617.025-.69.099-2.47 0-4.075-.966-4.84-2.872-.816-1.015-1.359-2.153-1.581-3.366a3.738 3.738 0 0 1-.691-2.179v-.693c0-1.263.666-1.882 1.975-1.882 0-.123.222-.173.691-.198 1.482 0 2.642 1.263 3.457 3.763.445 1.659.864 2.649 1.284 2.97h.1c.196-1.138.32-2.128.394-2.97-.173-2.475-.518-4.357-.988-5.644v-1.188c-.37-.223-.74-1.188-1.086-2.872-.864-1.46-1.383-2.698-1.58-3.664-1.828-2.946-2.89-5.396-3.161-7.327-.395-1.931-.593-3.02-.593-3.268v-1.09a.73.73 0 0 1 .099-.395c-.05-.124-.123-.619-.198-1.485.42-1.56 1.161-2.65 2.173-3.268 1.605-1.263 3.334-1.881 5.235-1.881 2.84 0 5.21 1.955 7.112 5.842M121.345.124c1.506 0 2.394.322 2.666.99.47.42.692 1.782.692 4.06.468 1.658.69 2.995.69 3.96 0 .273-.073.916-.197 1.981.124 1.263.272 3.268.395 6.04.074 0 .1.075.1.198-.396 2.204-.593 3.317-.593 3.367 0 .05.024.248.098.594 0 .421-.025.99-.098 1.684.073.817.098 1.609.098 2.376l-.395 1.882c.198.99.297 1.807.297 2.475v1.386c0 1.065-.099 1.783-.297 2.179.074.371.1.619.1.792 0 1.337-.075 2.401-.198 3.168.197.52.296 1.09.296 1.684v.198c0 .57-.692.94-2.074 1.089-.321 0-.815.025-1.482.1-1.284 0-2.074-.471-2.37-1.387-.667-1.733-.844-9.06-.844-10.57v-.199c0-.123-.074-.198-.197-.198-1.31 0-2.859.124-2.859.396v.1c0 .37.862 7.13 1.134 8.887-.099 1.782-.47 2.673-1.086 2.673-.37.396-.741.594-1.087.594h-.494a.723.723 0 0 1-.395-.099c-.098 0-.47.273-1.086.792-.37.075-.667.1-.89.1h-.79c-1.703 0-2.567-1.115-2.567-3.367-.47-2.822-.692-5.917-.692-9.308.198-.669.297-3.837.297-9.506v-.693c0-1.09.172-2.971.493-5.645.198-3.342.297-5.273.297-5.842l-.395-3.466c0-.643.79-1.064 2.37-1.287.198 0 .42.025.691.1a2.89 2.89 0 0 1 .79-.1c1.112 0 1.68.52 1.68 1.585.296 0 .519.792.691 2.376 0 .025-.025.47-.099 1.287.321 1.857.494 3.441.494 4.753v.1c0 .866-.074 1.46-.198 1.782.075.322.124 1.312.198 2.97a65.774 65.774 0 0 0-.099 2.179c0 .792.251 5.079.251 5.079.865-.198 2.585-.297 2.857-.297h.296l.099-.496c0-1.534.177-2.133.25-3.296-.123-1.114-.197-1.956-.197-2.575.198-3.267.296-8.812.296-16.635 0-.47.79-.817 2.37-.99h.693M134.728 3.367c.271-.124.691-.198 1.235-.198 1.703.173 3.283.297 4.79.37.963.52 1.432 1.165 1.432 1.957-.864 1.757-2.593 2.624-5.16 2.624h-1.161l-.47.099v-.1l-.197.1a.698.698 0 0 0-.37-.1c-.198.496-.297.966-.297 1.387v.198c0 .495.025 1.139.099 1.956l-.469 1.312c.099.916.222 1.386.37 1.386s.618-.025 1.433-.099c2.493.57 3.728.99 3.728 1.213.395.346.592.718.592 1.139-.42.99-1.21 1.485-2.395 1.485-.197 0-1.16.322-2.889.94h-.37l.099.174c0 .173-.025.272-.099.272.074.743.099 1.263.099 1.585v1.41c0 .422-.074 1.387-.198 2.897.074.495.198.94.395 1.312l-.099 1.114v.916c0 2.327.124 3.936.371 4.852a13.338 13.338 0 0 0-.099 1.51v.173c0 .372.222.57.667.57 1.16 0 2.345-.074 3.556-.198 1.53 0 2.296.371 2.296 1.114-.667 1.856-2.84 2.723-6.519 2.648-2.913.223-4.963-.05-6.173-.841-.716-3.293-1.086-6.536-1.086-9.729 0-.99.074-2.203.197-3.64-.123-.444-.271-1.46-.395-3.069l.198-2.153c-.074-.149-.124-1.214-.198-3.169l.47-6.065c-.124-.396-.174-.669-.174-.842v-.371c0-.297.025-.594.1-.916-.075-.421-.124-.718-.198-.842.074-.52.098-.965.098-1.312V4.481c0-.52.692-1.065 2.1-1.585.715 0 1.06-.025 1.06-.099 1.878.174 3.088.372 3.63.57M152.408 31.092h.098v-.198h-.098v.198zm-.297.892h.099v-.198h-.099v.198zM149.84 4.357l1.58 6.733v1.98c.667.471.989 1.461.989 2.971 0 .1-.074.372-.198.793.198 0 .321.47.395 1.386v.198c0 .445-.024.841-.099 1.188l.1.693a32.902 32.902 0 0 0-.1 1.287c.124.818.198 1.51.198 2.08v6.238c0 .273-.074.545-.198.792v.1h.1c1.11-2.006 1.678-3.69 1.678-5.05.395-1.412.593-3.219.593-5.447v-.693c0-5.718-1.087-10.298-3.26-13.764l-1.778-1.485zm-.888-3.664c3.16 0 5.407 1.114 6.716 3.367 1.333 1.658 2.617 4.085 3.852 7.228.716 2.303 1.086 3.912 1.086 4.852 0 .372-.024.817-.098 1.387.197 1.312.296 2.203.296 2.673 0 .718-.099 1.758-.296 3.169.074.57.098.99.098 1.287a21.452 21.452 0 0 0-.79 4.06c-.79 1.807-1.309 3.218-1.58 4.258-.84.668-1.408 1.46-1.68 2.376l-1.382.892c-1.852 3.243-2.535 3.96-4.24 3.96-.814 0-2.55.52-2.97-.198-1.309 0-2.198-.396-2.667-1.188-.592-1.906-.913-4.035-.988-6.436-.123-.694-.197-1.906-.197-3.664v-1.188c-.198-1.956-.296-3.59-.296-4.852 0-.05.074-.272.197-.693-.123-.595-.222-1.61-.296-3.07.074-1.683.123-2.649.197-2.872l-.197-1.287.197-3.367a185.318 185.318 0 0 1-.098-6.238V3.862c-.272-.817-.395-1.312-.395-1.486 0-.99 1.778-1.56 5.333-1.683h.198zM19.568 50.205l-.61 1.493h1.22l-.61-1.493zm1.392 3.42l-.42-1.032h-1.942l-.42 1.033h-1.03l1.968-4.638h.932l1.968 4.638H20.96zM32.222 53.626V50.62l-1.293 1.967h-.026l-1.28-1.948v2.987h-.99V49.02h1.089l1.207 1.947 1.208-1.947h1.089v4.605h-1.004M36.298 53.626V49.02h3.465v.901h-2.461v.934h2.166v.902h-2.166v.967h2.494v.9h-3.498M45.84 51.323c0-.815-.557-1.387-1.384-1.387h-.781v2.775h.78c.828 0 1.385-.559 1.385-1.374v-.014zm-1.384 2.303h-1.792V49.02h1.792c1.443 0 2.44.993 2.44 2.29v.012c0 1.296-.997 2.303-2.44 2.303zM49.811 53.626h1.011V49.02h-1.01zM55.967 50.205l-.61 1.493h1.22l-.61-1.493zm1.391 3.42l-.42-1.032h-1.942l-.42 1.033h-1.03l1.968-4.638h.932l1.969 4.638h-1.057zM61.093 53.626V49.02h1.01v3.684h2.29v.92h-3.3M69.152 50.205l-.61 1.493h1.22l-.61-1.493zm1.391 3.42l-.42-1.032h-1.942l-.42 1.033h-1.03l1.968-4.638h.932l1.969 4.638h-1.057zM76.175 50.205l-.61 1.493h1.22l-.61-1.493zm1.39 3.42l-.42-1.032h-1.941l-.42 1.033h-1.03l1.968-4.638h.932l1.968 4.638h-1.056zM84.523 53.626l-2.225-2.927v2.927h-.997V49.02h.932l2.152 2.835v-2.835h.997v4.605h-.86M94.545 53.705c-1.352 0-2.356-1.046-2.356-2.368v-.014c0-1.309.984-2.381 2.395-2.381.866 0 1.385.29 1.811.71l-.643.744c-.354-.322-.715-.52-1.175-.52-.774 0-1.332.645-1.332 1.434v.013c0 .79.545 1.448 1.332 1.448.525 0 .847-.21 1.208-.54l.643.652c-.473.506-.997.822-1.883.822M102.696 51.323c0-.789-.578-1.447-1.391-1.447-.814 0-1.378.645-1.378 1.434v.013c0 .79.577 1.448 1.39 1.448.814 0 1.379-.645 1.379-1.434v-.014zm-1.391 2.382c-1.418 0-2.435-1.06-2.435-2.368v-.014c0-1.309 1.03-2.381 2.448-2.381 1.417 0 2.434 1.059 2.434 2.368v.013c0 1.31-1.03 2.382-2.447 2.382zM110.21 53.626V50.62l-1.292 1.967h-.027l-1.28-1.948v2.987h-.99V49.02h1.09l1.207 1.947 1.207-1.947h1.09v4.605h-1.005M116.898 50.633c0-.454-.315-.697-.82-.697h-.78v1.407h.8c.505 0 .8-.302.8-.697v-.013zm-.833 1.611h-.768v1.382h-1.01V49.02h1.876c1.096 0 1.759.651 1.759 1.592v.013c0 1.066-.827 1.618-1.857 1.618zM122.208 50.205l-.61 1.493h1.22l-.61-1.493zm1.391 3.42l-.42-1.032h-1.942l-.42 1.033h-1.03l1.968-4.638h.932l1.969 4.638h-1.057zM130.556 53.626l-2.225-2.927v2.927h-.997V49.02h.932l2.152 2.835v-2.835h.997v4.605h-.86M137.79 51.79v1.836h-1.01V51.81l-1.765-2.789h1.181l1.096 1.848 1.116-1.848h1.148l-1.765 2.77"/></g></svg>