<?xml version="1.0" encoding="utf-8"?>
<!-- Generator: Adobe Illustrator 21.1.0, SVG Export Plug-In . SVG Version: 6.00 Build 0)  -->
<svg version="1.1" id="Layer_1" xmlns="http://www.w3.org/2000/svg" xmlns:xlink="http://www.w3.org/1999/xlink" x="0px" y="0px"
	 viewBox="0 0 1417.3 304" style="enable-background:new 0 0 1417.3 304;" xml:space="preserve">
<style type="text/css">
	.st0{fill:#FFFFFF;}
</style>
<g>
	<path class="st0" d="M830.6,180.4c-2.1,0-3.9,1.4-4.3,3.9h7.8C834,181.7,832.4,180.4,830.6,180.4z"/>
	<path class="st0" d="M805.7,59.8c-47.8-4.5-90.2,30.7-94.6,78.5c-2,21.4,4,41.8,15.5,58.1l-8.8,29.4l30.2-8.1
		c11.9,8.4,26.1,13.8,41.7,15.3c47.8,4.5,90.2-30.7,94.6-78.5C888.7,106.6,853.5,64.2,805.7,59.8z M739.7,149.7
		c0-2.5,1.3-3.9,3.9-3.9h4.7c2.5,0,3.4,1.1,3.7,3.6c0.3,2.6,1.6,5.1,4.6,5.1c2.7,0,4.5-1.7,4.5-5.3v-23.9l-0.1-6.7
		c0-2.5,1.3-3.9,3.9-3.9h4.7c2.5,0,3.9,1.3,3.9,3.9v30.8c0,11-8.4,16.3-16.7,16.3C748.1,165.8,739.7,160.2,739.7,149.7z
		 M780.4,191.2c0,0.4-0.2,0.6-0.6,0.6h-0.4c-0.4,0-0.6-0.2-0.6-0.6v-6.9c0-2-0.4-3.7-2.7-3.7c-2.5,0-4.2,2.6-4.2,5.2v5.4
		c0,0.4-0.2,0.6-0.6,0.6h-0.5c-0.4,0-0.6-0.2-0.6-0.6v-6.9c0-1.9-0.3-3.7-2.6-3.7c-2.5,0-4.3,2.7-4.3,5.2v5.4c0,0.4-0.2,0.6-0.6,0.6
		h-0.5c-0.4,0-0.6-0.2-0.6-0.6V180c0-0.4,0.2-0.6,0.6-0.6h0.4c0.4,0,0.6,0.2,0.6,0.6v1.4c0,0.5-0.1,0.9-0.1,0.9h0
		c0.6-1.7,2.6-3.2,4.6-3.2c2.3,0,3.5,1.1,3.8,3.1h0c0.7-1.6,2.5-3.1,4.6-3.1c3,0,4.1,1.8,4.1,4.8V191.2z M782.6,118.7
		c0-2.5,1.3-3.9,3.9-3.9h4.6c2.5,0,3.9,1.3,3.9,3.9v42.4c0,2.5-1.3,3.9-3.9,3.9h-4.6c-2.5,0-3.9-1.3-3.9-3.9V118.7z M789.8,192.1
		c-3.6,0-6.6-2.8-6.6-6.6c0-3.7,2.9-6.5,6.6-6.5c3.6,0,6.6,2.8,6.6,6.5C796.4,189.3,793.4,192.1,789.8,192.1z M805.1,192.1
		c-3,0-4.2-2.6-4.2-2.6h0c0,0,0.1,0.4,0.1,0.9v0.8c0,0.3-0.2,0.6-0.6,0.6H800c-0.4,0-0.6-0.2-0.6-0.6V175c0-0.4,0.2-0.6,0.6-0.6h0.5
		c0.4,0,0.6,0.2,0.6,0.6v5.6c0,0.6-0.1,1-0.1,1h0c0,0,1.1-2.6,4.3-2.6c3.3,0,5.4,2.7,5.4,6.5C810.7,189.5,808.3,192.1,805.1,192.1z
		 M815.4,191.2c0,0.4-0.2,0.6-0.6,0.6h-0.5c-0.4,0-0.6-0.2-0.6-0.6V180c0-0.4,0.2-0.6,0.6-0.6h0.5c0.4,0,0.6,0.2,0.6,0.6V191.2z
		 M815.5,175.9c0,0.4-0.2,0.6-0.6,0.6h-0.6c-0.4,0-0.6-0.2-0.6-0.6V175c0-0.4,0.2-0.6,0.6-0.6h0.6c0.4,0,0.6,0.2,0.6,0.6V175.9z
		 M822.8,191.3c0,0.4-0.2,0.6-0.6,0.6c-1,0-2.8-0.3-2.8-3V175c0-0.4,0.2-0.6,0.6-0.6h0.5c0.4,0,0.6,0.2,0.6,0.6v13.6
		c0,1.6,0.7,1.7,1.3,1.8c0.3,0,0.5,0.2,0.5,0.5V191.3z M835.2,185.6h-9c0.1,3.2,2.3,5,4.8,5c1.6,0,2.7-0.7,3.3-1.1
		c0.3-0.2,0.6-0.2,0.8,0.2l0.2,0.3c0.2,0.3,0.1,0.6-0.2,0.8c-0.7,0.5-2.2,1.4-4.2,1.4c-3.7,0-6.5-2.7-6.5-6.5c0-4.1,2.8-6.5,6.1-6.5
		c3.3,0,5.2,2.4,5.2,5.9C835.8,185.3,835.6,185.6,835.2,185.6z M847.1,164.9h-4.6c-2.5,0-3.8-1.3-4-3.7v-20.9c0-1.1-0.6-1.4-1.5-0.2
		l-8.7,11.2c-0.7,0.9-2.1,0.9-2.8,0l-8.7-11.2c-0.9-1.2-1.5-0.9-1.5,0.2v20.9c-0.2,2.5-1.5,3.7-4,3.7h-4.6c-2.5,0-3.9-1.5-3.6-4
		l0.1-42.4c0.2-2.5,1.5-3.7,4-3.7h6.3c2.2,0,3,0.9,4.3,3.2l7.6,12.9c0.7,1.2,2.4,1.2,3.1,0l7.6-12.9c1.4-2.2,2.1-3.2,4.3-3.2h6.3
		c2.5,0,3.8,1.3,4,3.7l0.1,42.4C851,163.4,849.7,164.9,847.1,164.9z"/>
	<path class="st0" d="M789.8,180.5c-2.7,0-4.9,2.1-4.9,5c0,2.9,2.2,5.1,4.9,5.1c2.7,0,4.8-2.2,4.8-5.1
		C794.6,182.7,792.5,180.5,789.8,180.5z"/>
	<path class="st0" d="M805,180.6c-2.1,0-4,1.5-4,5c0,2.6,1.3,5,3.9,5c2.2,0,4-1.8,4-5C809,182.5,807.3,180.6,805,180.6z"/>
</g>
<g id="Logo_1_">
	<g id="XMLID_3_">
		<path id="XMLID_4_" class="st0" d="M1368.8,132.2c-13.6,0-25,7-29.3,18.7v-17.5h-51.4l-6.9,25.5h-0.7l-7-25.5h-28.2l4.2,9.6
			c-6-7-15.5-10.8-26.3-10.8c-13.6,0-25,7-29.3,18.7v-17.5l-35.6,0V116h-26.4v17.5l-9.2,0v13.9c-3.6-4.1-9.1-6.7-15.6-8.1l-6.3-1.4
			c-2.1-0.5-5.6-0.9-5.6-3.8c0-3.2,3.6-4.1,6-4.1c6,0,11.4,2.5,16.2,5.8l7.5-19.6c-7.5-4.6-15.6-6.7-24.3-6.7
			c-16.7,0-33.3,10.2-33.3,28.4c0,12,9.2,18.4,20,20.3l5.6,1c2.5,0.5,6.2,0.8,6.2,4.3c0,3.5-4.4,4.6-7.1,4.6c-6.4,0-12.4-3.2-17.4-7
			l-1.4-1.1l-8.5,21.7c8.6,4.4,19.8,7,29.5,7c16.6,0,33.3-9.1,33.3-27.4c0-2.6-0.3-4.9-1-6.9l5.4,0v33.1h26.4v-33.1l9.4,0v33.1h26.2
			v-16.2c4.5,11.8,17.2,17.4,30.8,17.4c12.4,0,27-6,30.4-19h-25.5c-0.5,2.5-2.5,4.5-5.3,4.5c-5.5,0-6.2-4.9-6.2-9.3h38.1
			c0.2-2.4,0.1-4.6-0.2-6.8l12.9,29.3h23.8l20.5-47v47h26.2v-16.2c4.5,11.8,17.2,17.4,30.8,17.4c12.4,0,27-6,30.4-19h-25.5
			c-0.5,2.5-2.5,4.5-5.3,4.5c-5.5,0-6.2-4.9-6.2-9.3h38.1C1403.1,144.6,1388,132.2,1368.8,132.2z M1218.2,153.6c0-3.8,1.9-7,5.9-7
			c3.8,0,6.4,3.4,6.4,7H1218.2z M1363.7,153.6c0-3.8,1.9-7,5.9-7c3.8,0,6.4,3.4,6.4,7H1363.7z"/>
	</g>
	<circle id="XMLID_2_" class="st0" cx="1180.9" cy="116.8" r="12.7"/>
	<circle id="XMLID_1_" class="st0" cx="1326.3" cy="116.8" r="12.7"/>
</g>
<g>
	<g>
		<path class="st0" d="M602.8,64.2l0.2,0.1l0.1-0.1l-0.2-0.1L602.8,64.2z M599,63.7l-0.1-0.1l-0.2,0.1l0.1,0.1L599,63.7z M591.8,63
			l-0.1-0.1l-0.2,0.1l0.1,0.1L591.8,63z M601,62.3L601,62.3l0.2-0.1l-0.1-0.1L601,62.3z M600.1,61.4L600.1,61.4v-0.2l-0.1,0.1
			L600.1,61.4z M578.1,236.1L578.1,236.1v-0.2L578,236L578.1,236.1z M577.3,231.4l0.1,0.1l0.2-0.1l-0.1-0.1L577.3,231.4z
			 M607.2,120.6l-0.1-0.1l-0.2,0.1l0.1,0.1L607.2,120.6z M608.2,116.5l0.2,0.1l0.1-0.1l-0.2-0.1L608.2,116.5z M608.2,112.2l0.2,0.1
			l0.1-0.1l-0.2-0.1L608.2,112.2z M588.6,89.4l0.2,0.1l0.1-0.1l-0.2-0.1L588.6,89.4z M588.5,84.9L588.5,84.9v-0.2l-0.1,0.1
			L588.5,84.9z M587,84.4l0.1-0.1l-0.2-0.1l-0.1,0.1L587,84.4z M587.4,79l0.2,0.1l0.1-0.1l-0.2-0.1L587.4,79z M590.2,79l0.2,0.1
			l0.1-0.1l-0.2-0.1L590.2,79z M588.6,73.9l0.2,0.1l0.1-0.1l-0.2-0.1L588.6,73.9z M606.9,122.6l0.2,0.1l0.1-0.1l-0.1-0.3l-0.2,0
			L606.9,122.6z M593,86.3l-0.6-0.1L593,86.3z M586.2,87.5l0-0.5L586.2,87.5z M608.5,136.6h-0.6H608.5z M594.8,61.2v0.5V61.2z
			 M608.3,142.1v-0.5V142.1z M588.8,104.3v-0.5V104.3z M587.5,119.8v0.5V119.8z M608.3,137.7l0-0.5l-0.4,0.4L608.3,137.7z
			 M585.5,147.2l0.4,0.5l0-0.5L585.5,147.2z M607.1,112.1l-0.1,0.8L607.1,112.1z M608.2,120.7l0.6,0.1l0.1-0.4l-0.6,0V120.7z
			 M585.2,110.5l0.5,0.1l0-0.7L585.2,110.5z M604.1,106.3l0.4,0.5l0.4-0.1l-0.4-0.5L604.1,106.3z M587.5,80.6v-1.1V80.6z
			 M599.7,63.1l-0.1,0.4l0.5,0.1l0-0.5H599.7z M608.8,149.4l-0.5-0.1l0,0.7L608.8,149.4z M604.3,76.4l-0.4,0.4l0.4,0.7L604.3,76.4z
			 M590.1,78.6l0.1-0.2v-0.1l-0.5-0.7l-0.3,1H590.1z M605.8,82.7l-0.1,0.4l-0.3,0.3l0,0.3l0.4,0.1l0.4-0.6L605.8,82.7z M607.2,109.2
			l-0.5-0.1l-0.2,0.6l0.6,0.3L607.2,109.2z M590.8,88.2v-0.8l-0.4-0.1l0,1.2L590.8,88.2z M586.9,83l-0.1,0.6l0.4,0.3l0.5-1H586.9z
			 M586.4,137.1l-1-0.1l-0.1,0.6h0.5l0.7-0.3L586.4,137.1z M607.2,104.6l-0.2-0.5l-0.4,0.4v1l0.5-0.2l0.6-0.1L607.2,104.6z
			 M607,125.6l-0.4,0.3l0.2,0.6l0.4-0.3l0.5,0.6l0.2-0.2l0-1.1H607z M589.1,128.5l0.1-0.6l0.3-0.2l-0.4-0.6l-0.3,0.2l-0.5,0.1v0.9
			l0.6,0.3L589.1,128.5z M607.8,119.2l0-0.6l0.6-0.1l0-0.3l-0.5-0.1l-0.9-0.9l-0.4,0.6l0.3,0.2v1L607.8,119.2z M606.8,106l-0.3-0.2
			l-0.1,0.1l0,2.2l0.3,0.3l0.8,0l0.2-1.6l0.2-0.2l-0.3-0.3V106l0.3-0.1l-0.3,0.2L606.8,106z M607.8,127.9l0.4-0.3l-0.5-0.1l-0.2,0.6
			l0.3,0.2l0.1,1l0.3-0.6l-0.2-0.2l-0.3-0.3L607.8,127.9z M588.5,92.6l-0.3-0.2l-0.5-0.1l0.6,0.1L588.5,92.6z M593.2,87.1l0.3,0.2
			l-0.1,0.5h-0.5l-0.1,0.9l0.4,0.1l0.4-0.6l-0.3-0.3l0.4-0.3l-0.3-0.2L593.2,87.1z M586.1,139.3l-0.3,0.2l-0.3,0.1l0.3-0.2
			L586.1,139.3z M607.2,90.3l0.3-0.6l0.4-0.5l-0.6-0.3l0,0L607.2,90.3l-0.3,0.3l0.3,0.2l-0.6,0.5l-0.1,0.2L607,92l-0.3,0.3v1.3
			l0.3,0.2v1.7l0.2,0.6l-1.1,0.1l0.3,0.8l0.3,0.6l0,0.8l0.3,0.6l-0.3,0.3v1.4l0.3,0.3l0,0.7l0.1,0.1l0.7-0.2l0.7,0.1l0.2,0.4
			l0.4-0.3l0.2,0.9l0.2,0.2v0.5l0.3,0.3v0.8l-0.6,0.4v1l0.3,0.2v1l0.3,0.2v1.2l-0.3,0.3v0.5l-0.3,0.3l0.3,0.3v1.4l0.3,0.4l-0.3,0.4
			l0.2,0.2l0,0.3l-1.1,0.6l-0.1,0l-0.2-0.2l0,0.7h0.7l0.5,0.5l-0.3,0.3v0.5l0.3,0.3v0.5l0.3,0.3l-0.1,0.6l-0.2,0l-0.3,0.1l0.6,1.3
			l0,3.1l0.1,0.1l0.2,0.2l-0.3,0.3v0.7l0.3,0.3l-0.3,0.2v3.7l0.3,0.2v0.5l-0.3,0.5l0.3,0.3l0,0.2l-0.3,0.3l0.3,0.2v1l-0.3,0.2
			l0.3,0.2v2.4l0.3,0.2l-0.3,0.3v0.7l0.3,0.3v1.9l-0.3,0.3v0.7l0.3,0.2v4.9l-0.3,0.2v1l0.3,0.2v3.7l-0.1,0.2l-0.2,0.2l0.3,0.3v1
			l-0.3,0.2v1.5l0.3,0.2l-0.3,0.2v0.8l0.3,0.2l-0.3,0.3v0.5l0.3,0.3l-0.3,0.2v0.5l0.3,0.3v1.2l-0.3,0.4l0.4,0.4v0.4l-0.3,0.3v3.1
			l-0.3,0.3v1.2l0.3,0.3l-0.3,0.2v2.6l0.3,0.5l-0.4,0.3l0,6l-0.1,0.1l-0.2,0.1v1.7l-0.4,0.4l0.4,0.4v0.7l-0.3,0.2v1l0.3,0.3
			l-0.3,0.2l0,4.3l-0.1,0.1l-0.2,0.1v5.3l-0.3,0.3v2.2l-0.3,0.2v5.3l-0.3,0.3v2.7l-0.3,0.3v3.2l-0.3,0.2l0,2.9l-0.1,0.1l-0.2,0.1
			v3.1l-0.3,0.3v2.2l-0.3,0.2v3.9l-0.3,0.3v2.9l-0.3,0.3v2.4l-0.3,0.3l0.4,0.6l-0.4,0.3v2.9l-0.3,0.2v2.7l-0.3,0.3v1.9l-0.3,0.3v1.2
			L604,230v1l-0.3,0.2v1l-0.3,0.2l-0.7,1.7l-0.2,0.2v0.7l-0.6,0.3l-0.2,0.6l-0.5-0.4l-0.2-0.6l-0.5,0.4v0.7l-0.3,0.3v0.5L600,237
			v0.5l-0.6,0.4l-0.2,0.4l-0.4-0.3l-0.2,0.5l-2,0.2l0.2-0.6l-0.5-0.1l-0.6,0.8l-0.1-0.4l-0.1-0.3l-1,0.5l-0.3-0.5L593,239l-0.5,0.1
			l-0.3,0.2l-2.4,0l-0.1,0.1l-0.3,0.2l-0.7-0.3l-0.5-0.3h-1.5l-0.8-0.7l0.8-0.7h0.9l0.5-0.3l-0.3-0.3l0.3-0.3l-0.1-1l-0.4,0
			l-0.3,0.2l-0.3-0.2l-0.7,0.3l-0.5,0.8l-0.8,0.3l-0.2-1.4l-0.3,1.2l-0.2-0.9l-0.5-0.5l0,0.8l-0.3,0.3l-0.1,0.6l-0.4-0.6l-0.3-0.7
			l-0.1,0.7l-1,0.3l-0.4-0.2l-0.3,0.2l-0.5-0.2l-0.2-0.2l-0.1,0.2h-0.5l-0.3,0.5l-0.7-0.7l-0.7-0.1v-0.5l-0.3-0.3v-3.1l-0.5-0.4
			l-0.4-0.2l0.5-0.2l0-0.3l-0.3-0.3V227l0.3-0.3v-1.2l-0.3-0.3l0.3-0.2v-3.9l0.1,0l0.2-0.6L577,220l0.3-0.3v-2.7l0.3-0.3v-1.2
			l0.3-0.3V215l-0.3-0.4l0.4-0.5v-1.6l0.3-0.2l-0.3-0.3l0.3-0.3v-1.7l0.3-0.3v-1.7l0.3-0.2v-1.5l0.3-0.2l-0.3-0.3l0.1-0.8l0.2-0.2
			v-1.7l0.3-0.3v-2.6l0.3-0.3v-1.9l0.3-0.2v-2.4l0.3-0.3v-1.2l0.3-0.2l0-1.9l0.1-0.1l0.2-0.2l-0.3-0.3v-0.5l0.3-0.3V189l0.3-0.2v-1
			l0.6-0.5v-0.5l-0.6-0.5l0.3-0.2v-1.6l0.8-0.4l-0.5-0.5l0.1-1l0.2-0.2l-0.4-0.4l0.4-0.4V179l0.3-0.2v-1.2l0.3-0.2l-0.2-0.5l0.3-0.4
			l0.7,0.5l0.4,0v-0.6l-1.2-0.7l0-1.7l-0.1,0.1l1-0.5v-1l-0.2-0.2l0.6-0.7l-1-0.6v-1l0.3-0.3l0-1.7l0.1-0.1l0.4-0.1l-0.1-1.1
			l-0.5-0.1v-0.6l0.3-0.2l0.2-1.3l0.3-0.6l0.5,0.1v0.3l0.5,0.3l0.4-1.2l-0.6-0.3l-0.6,0.3l-0.5-0.4v-0.7l0.3-0.3v-2.6l0.6-0.5l0-1
			l-0.6-0.2l0.3-0.5v-2.7l-0.3-0.3l0.6-0.9l0-0.3l-0.1-0.2l-0.2-0.2l0-1.3l0.1-0.2l0.6-0.2l-0.7-0.3l0.1-0.4l0.4,0.2l0.5-0.6
			l-0.7-0.3v-1.2l-0.3-0.2l0-3.6l0.1-0.1l0.5,0.1l0.1,0.4l0.8-0.1v-0.5l-0.7-0.6l-0.8-0.1l0-2.6l-0.1-0.1l-0.2-0.2l0.3-0.3v-3.1
			l0.3-0.3l-0.3-0.2v-1.5l0.3-0.2l-0.3-0.3l0-1l0.3-0.2l-0.3-0.3V133l0.3-0.3l0.1-0.7l0.1-0.1l0.4,0.2l0.1-0.3l-0.3-0.3l-0.2-0.6
			l-0.4-0.6l0.1-0.3l0.7,0.7l0.4-0.1l0.2-0.1l0.4-0.1v-0.3l-1.5-0.4l-0.1-0.1l0-1.4l0.8-0.3l0.6,0.4l0.1,0.5l0.1-0.6l0.3-0.3v-1
			l-0.5-0.3h-0.6l-0.5-0.3l-0.3-0.4v-0.7l0.2-0.8l-0.5-0.1l0.3-0.3v-0.5l-0.3-0.2v-0.5l0.3-0.3v-2.4l0.4-0.4l-0.4-0.6l0.5-0.8
			l0.9-0.5l-0.6-0.3l-0.4-0.1V117l-0.3-0.3l0.2-0.9l1.1,0.5l0.2-0.1v-0.5l-0.3-0.3l0.3-0.3l-0.1-0.3h-0.7l-0.3-0.2l-0.3,0.2
			l-0.4-0.6l0.7-0.3l0.6-0.4l-0.2-0.8l-1.1-0.1V110l0.3-0.2l-0.1-0.8l-0.2-0.2v-2.9l0.3-0.3v-0.7l0.9-0.5v-1l0.7-0.6l0.5-0.6
			l-0.7-0.6l-0.5-0.1l0.3-0.3v-1.2l-1.6-1.2l0-1.9l0.1-0.1l0.6-0.4l-0.7-1.1l0.4-0.4v-1.4l0.6-0.5l0.1-0.6l0.4-0.1l0.4-0.8l-0.5-0.4
			l-0.3,0.2l-0.1-0.6l0.9-0.5l-0.1-0.4l-0.9,0.1l0.1-0.3l0.8-0.1l0.1-0.6l0.1-0.6l-1.2,0l-0.2,0.1l-0.1,0.5l-0.5-0.5l0.3-0.2v-0.8
			l0.9-0.5l-0.3-0.3v-0.4h0.8l0.3,0.2l0.5-0.6l-0.3-0.3l0-1l-0.1-0.1l-0.5,0.1l-0.6,0l-0.1-0.6l-0.2-0.2l0.2-0.8l-0.2-0.2l0.6-0.5
			v-0.5l0.4-0.3l-0.3-0.7l0.2-0.2v-1l0.3-0.2v-0.5l-0.3-0.2l0.3-0.3v-1.2l0.3-0.3l-0.1-0.6l-0.5-0.2l0.6-0.5v-1.5l0.6-0.5v-0.5
			l1.2-0.5l-0.2-1l0.5-0.3l-1,0l-0.3,0.2l-1.1-0.1l0.7-0.3l0.6-0.3l0.5-0.6l-0.3-0.3l0.3-0.3l-1-0.2l0.3-0.3l-0.3-0.7l0.4-0.4
			l0.4,0.1l0.1,0.8l0.2-0.1l0.2,0.6l0.5-0.7l-0.3-0.3l0.3-0.4l-0.7-0.5l-1-0.7l0.7-0.6l1.1,1l0.3-0.1l0-0.3l-0.6-0.1l0.2-0.5
			l0.3-0.5l-1.1-0.8l-0.1,0l-0.2,0.4l-0.5-0.2l0.5-0.7l0.3,0.2l0.2-0.2l1,0.2l0.7-0.7l1-0.2l0-0.3l-0.4-0.3l-1.2-0.1v-0.3l0.6-0.3
			l-0.4-0.5l0.7-0.4l-0.3-0.4l0.3-0.2l-0.3,0.2l-0.9-0.1l0.6-0.2l0.1-0.6l0.6-0.2l0-0.3l0.5-0.3l0.1,0.1l0,1.8l0.3,0.1v-1l0.3-0.7
			l-0.2-0.2l0.3-0.2l0.1-0.9l1.2,0.2l0.2,0.8l0.1-0.1l0-1.3l0.5,0l1,0.2l-1-0.2l-0.2-0.4l0.5-0.3l0.9,0l0.1,0.1l0.2,0.9l0.2-0.9
			l0.2-0.2l-0.3-0.3l0.3-0.3l-0.1-0.3l-0.3,0l-0.5,0.2l0.4-1.2l0.4,0.7l0.1-0.7l0.6,0.3l-0.3,0.7l0.2,0.5l0.2,0.4l0.1-0.1l0-1.7
			l0.3-0.3l0.7,0.3l-0.4,0.3v2.2l-0.6,0.2l0.3,0.4l0.3,0.4l0.3,0.1l0.1-0.6l0.6-0.3l0.1,0.5l0.4,0l0.6-1h0.5l0.3,0.4v0.7l-0.2,0.4
			l1.1,0.2l-0.7,0.1l-0.5,0.3l-0.5-0.2l-1.1,0.3l0,1.2l0.1,0.1l0.7-0.7h0.6l0.3-0.2l0.7,0.1l-0.1,0.5l-0.6,0.3l-0.2,0.2l0.2,0.1
			l0.6,0.5l0.7,0.5l-0.2,0.3h-0.3l-0.5,0.7l0.5,0.3l0.7,0.4l0.1-1.8l0.1-0.1l0.2,0.7l0.9,0.6v0.6l-0.3,0.2l0.2,0.3l-0.6,0.4
			l-0.4,0.6l-0.9,0.1l0.6,0.2l0.5,0.2l0.6,0.4l0.2,0.2l-0.3,0.4l0.4,0.3v5.8l0.3,0.5l-0.3,0.3l0.3,0.2l-0.3,0.3l0.1,0.7l0.3,0.8
			l0.1,0.3l0.7-0.5l0.1,0.1l0,1.2l-0.3,0.3l-0.1,0.8l-0.5,0.2l0.6,0.2l-0.1,0.5l-0.5,0.7l0,0.3h1l0.4-0.2l0.1,0.6l-0.3,0.4l0.3,0.4
			v1l-0.3,0.2l1.1-0.1l0.5,0.4l-0.4,0.9l-1.2,0.7l0.1,0.8l0.2-0.3l0.6-0.4l0.9,0.3l-0.2,0.8l0.2,0.2l-0.3,0.3v1l0.3,0.3l0,1.2
			l0.1,0.1l0.1-0.1l0.2-0.9l0.2-1l0.2-0.2l0.8,0.6v0.3l0.6,0.2v1.2l0.4,0.5l-0.6,0.4l-0.3-0.2l-0.7,0.1v0.7l0.2,0.2l0.2,0.6l0.5,0.1
			v0.7l0.6,0.9l-0.1,0.3l-0.8,0.1l0.6,0.8v0.4l-0.3,0.3v1l0.3,0.3v0.7l-0.3,0.2v1l0.2,0.2l-0.3,0.4l0.4,0.4l-0.4,0.4v1.7l0.2,0.6
			l-0.3,0l-0.7-0.5l-1.1-0.1l0.3-0.3l0-1.1l-0.1-0.2l-0.2-0.2l0.9-1l-0.6-0.5l0.5-0.3l0.5-0.2v-1l-0.9-0.7l0.5-0.3l0.7-0.4v-0.5
			l-0.5-0.4l-0.8,0.1v-1.3l1-0.1l-0.8-0.3l0.4-0.3l-0.7-0.4v-0.8l-0.3-0.1V90.3z"/>
		<polygon class="st0" points="592.7,57.7 592.7,58.7 593.2,58.8 593.5,58.5 594,58.5 594,57.9 593.3,57.8 592.8,57.5 		"/>
		<polygon class="st0" points="584.5,101.5 585.2,101.9 585.5,101.9 585.5,101.2 584.8,100.9 		"/>
		<polygon class="st0" points="606,81.6 606.5,82 606.9,81.6 606.7,81 		"/>
		<polygon class="st0" points="594.6,55.9 594.9,56.2 594.6,56.4 594.6,56.7 595.1,56.8 595.4,55.8 		"/>
		<polygon class="st0" points="597.8,55.1 598.2,55.1 598.4,54.5 597.9,54.2 		"/>
		<polygon class="st0" points="584.9,127.3 585.5,127 585.2,126.7 585.2,126.1 		"/>
		<polygon class="st0" points="598.8,57.9 599,58.2 599.2,58.2 599.3,57.4 599.2,57.3 		"/>
		<polygon class="st0" points="590.1,64.1 589.3,64.4 590.1,64.6 590.5,64.2 590.2,64.1 		"/>
		<polygon class="st0" points="592,56.8 592.3,57 592.3,56.3 		"/>
		<polygon class="st0" points="606.3,80.6 606.7,80.8 607.2,80.5 606.7,80.3 		"/>
		<path class="st0" d="M585.3,103.8l0.1-0.7L585.3,103.8z"/>
		<polygon class="st0" points="588.7,66.8 589.4,66.3 588.6,66.2 		"/>
		<polygon class="st0" points="597.8,53.5 598.2,53.6 598.2,53.2 		"/>
		<path class="st0" d="M600.6,57.8l0.2-0.5L600.6,57.8z"/>
		<polygon class="st0" points="600,57.4 600.2,57.5 600.3,57.4 600.2,57.1 600,57.1 		"/>
		<polygon class="st0" points="586.8,70.5 586.9,70.6 587,70.5 586.9,70.4 		"/>
		<polygon class="st0" points="587.4,71.3 587.5,71.3 587.6,71.2 587.5,71.1 		"/>
		<path class="st0" d="M585.6,86.6l-0.3-0.2L585.6,86.6z"/>
		<polygon class="st0" points="584.9,113.3 585,113.5 585.1,113.4 585,113.3 		"/>
		<polygon class="st0" points="586.8,236.8 586.9,236.8 587,236.7 586.9,236.6 		"/>
		<polygon class="st0" points="579.8,236.6 580,236.8 580.1,236.6 		"/>
		<polygon class="st0" points="592.8,53.2 592.9,53.4 593,53.3 592.9,53.2 		"/>
		<polygon class="st0" points="596.8,54.5 596.9,54.6 597.1,54.5 597,54.4 		"/>
		<polygon class="st0" points="599,55.9 599.2,56 599.3,55.9 599.1,55.9 		"/>
		<polygon class="st0" points="593.7,56.5 593.8,56.6 593.9,56.4 593.8,56.3 		"/>
		<polygon class="st0" points="593.4,57.2 593.5,57.2 593.7,57.2 593.6,57.1 		"/>
		<polygon class="st0" points="595.6,57.4 595.7,57.5 595.8,57.4 595.7,57.3 		"/>
		<polygon class="st0" points="601.3,57.9 601.4,58 601.5,57.8 601.4,57.8 		"/>
		<polygon class="st0" points="590.9,58.6 591,58.7 591.1,58.6 591,58.5 		"/>
		<polygon class="st0" points="591.5,59.1 591.6,59.2 591.7,59.1 591.6,59 		"/>
		<polygon class="st0" points="600.9,61.4 601.2,61.2 600.9,61.2 		"/>
		<polygon class="st0" points="589,62 589.1,62.1 589.2,62 589.1,61.9 		"/>
		<polygon class="st0" points="603.5,62.5 603.6,62.6 603.7,62.5 603.6,62.4 		"/>
		<polygon class="st0" points="588.3,64.4 588.5,64.5 588.6,64.4 588.4,64.4 		"/>
	</g>
	<g>
		<path class="st0" d="M990.9,60.7l-0.1-0.1l-0.1,0.1L990.9,60.7L990.9,60.7z M977.7,60.2L977.7,60.2h-0.3l0.1,0.1L977.7,60.2z
			 M992.2,236.4L992.2,236.4l-0.2,0.1l0.1,0.1L992.2,236.4z M988.6,236.4l0.1,0.1l0.1-0.1L988.6,236.4L988.6,236.4z M985.9,236.4
			l0.1,0.1l0.1-0.1L985.9,236.4L985.9,236.4z M997.9,233.3l0.2-0.1l-0.1-0.1L997.9,233.3L997.9,233.3z M998.9,232L998.9,232l0.1,0.1
			l0.1-0.1L998.9,232z M984.1,231.4L984.1,231.4l0.1,0.1l0.1-0.1L984.1,231.4z M998.3,230.6L998.3,230.6l0.2-0.1l-0.1-0.1
			L998.3,230.6z M978.2,57.2l-0.1-0.1l-0.1,0.1L978.2,57.2L978.2,57.2z M986.1,230.4l-0.1-0.1l-0.1,0.1L986.1,230.4L986.1,230.4z
			 M991.1,229.1L991.1,229.1L991,229l-0.1,0.1L991.1,229.1z M992.2,228.6L992.2,228.6l-0.2,0.1l0.1,0.1L992.2,228.6z M996,228.3
			l0.1,0.1l0.1-0.1L996,228.3L996,228.3z M988,227.7L988,227.7h-0.3l0.1,0.1L988,227.7z M989.7,221.9L989.7,221.9v0.2l0.1-0.1
			L989.7,221.9z M989,222.1L989,222.1l-0.1-0.1l-0.1,0.1L989,222.1z M985.6,221.9l-0.1-0.1l-0.1,0.1L985.6,221.9L985.6,221.9z
			 M974.9,215.2L974.9,215.2v0.2l0.1-0.1L974.9,215.2z M998.9,212.2L998.9,212.2l0.1,0.1l0.1-0.1L998.9,212.2z M988.8,211.6
			l-0.1-0.1l-0.1,0.1L988.8,211.6L988.8,211.6z M974.9,199l0.2-0.1l-0.1-0.1L974.9,199L974.9,199z M999.8,196.3L999.8,196.3
			l-0.2,0.1l0.1,0.1L999.8,196.3z M998.9,185.4l0.1,0.1l0.1-0.1L998.9,185.4L998.9,185.4z M971.8,182.2L971.8,182.2v0.2l0.1-0.1
			L971.8,182.2z M999.4,175.6L999.4,175.6l0.2-0.1l-0.1-0.1L999.4,175.6z M999.4,172.9L999.4,172.9l0.1,0.1l0.1-0.1L999.4,172.9z
			 M999.3,170.4l-0.1-0.1l-0.1,0.1L999.3,170.4L999.3,170.4z M996.8,163.1L996.8,163.1l0.1,0.1l0.1-0.1L996.8,163.1z M970.7,148.8
			L970.7,148.8l-0.1-0.1l-0.1,0.1L970.7,148.8z M997,138.5L997,138.5l0.2-0.1l-0.1-0.1L997,138.5z M968.1,126.6L968.1,126.6
			l-0.1-0.1l-0.1,0.1L968.1,126.6z M995.2,125.8L995.2,125.8l0.1,0.1l0.1-0.1L995.2,125.8z M970,125.8L970,125.8l-0.2,0.1l0.1,0.1
			L970,125.8z M995.6,125.4L995.6,125.4l-0.2,0.1l0.1,0.1L995.6,125.4z M967.7,125.4l0.1,0.1l0.1-0.1L967.7,125.4L967.7,125.4z
			 M995.8,125.1L995.8,125.1l-0.1-0.1l-0.1,0.1L995.8,125.1z M994.2,124.7L994.2,124.7v0.2l0.1-0.1L994.2,124.7z M967.6,105.2
			L967.6,105.2l-0.1-0.1l-0.1,0.1L967.6,105.2z M968.6,102.6L968.6,102.6l-0.1-0.1l-0.1,0.1L968.6,102.6z M995,101.6l-0.2,0.1
			l0.1,0.1L995,101.6L995,101.6z M970.1,96.2l0.1,0.1l0.1-0.1L970.1,96.2L970.1,96.2z M970.4,85.2l0.2-0.1l-0.1-0.1L970.4,85.2
			L970.4,85.2z M971.6,81.4l-0.1-0.1l-0.1,0.1L971.6,81.4L971.6,81.4z M977.9,73.2L977.9,73.2l-0.1-0.1l-0.1,0.1L977.9,73.2z
			 M970.9,71.3l0.1,0.1l0.1-0.1L970.9,71.3L970.9,71.3z M975.2,70.8l0.2-0.1l-0.1-0.1L975.2,70.8L975.2,70.8z M993.5,69.6l-0.1-0.1
			l-0.1,0.1L993.5,69.6L993.5,69.6z M976.6,69.1L976.6,69.1l-0.2,0.1l0.1,0.1L976.6,69.1z M970.2,68.9l-0.2,0.1l0.1,0.1L970.2,68.9
			L970.2,68.9z M971.6,68.1l-0.1-0.1l-0.1,0.1L971.6,68.1L971.6,68.1z M973.2,67.2L973.2,67.2l-0.2,0.1l0.1,0.1L973.2,67.2z
			 M980,66.1L980,66.1l-0.2,0.1l0.1,0.1L980,66.1z M987.1,64.2L987.1,64.2l-0.1-0.1l-0.1,0.1L987.1,64.2z M985.8,63.4L985.8,63.4
			v0.2l0.1-0.1L985.8,63.4z M988,63.3l-0.1-0.1l-0.1,0.1L988,63.3L988,63.3z M972.3,63.3L972.3,63.3l-0.1-0.1l-0.1,0.1L972.3,63.3z
			 M990.8,62.8l-0.2,0.1l0.1,0.1L990.8,62.8L990.8,62.8z M994.1,62L994.1,62h-0.3l0.1,0.1L994.1,62z M978.5,61.8L978.5,61.8l0.2-0.1
			l-0.1-0.1L978.5,61.8z M991,227.8l0,0.4L991,227.8z M970.3,74.8l-0.5,0L970.3,74.8z M995.6,117.3l-0.2,0l0,0.3l0.1,0.1l0.2-0.1
			L995.6,117.3z M990.2,77.3v-0.4V77.3z M992.4,98.3v-0.4V98.3z M989.6,225.5h0.5H989.6z M992,137.9l0.2,0l0-0.3l-0.1-0.1l-0.2,0.1
			L992,137.9z M993.7,137.5v0.4V137.5z M979,57.7l0-0.1l-0.4,0l-0.1,0.1l0.1,0.1L979,57.7z M993.3,145.8l0.2,0l0-0.3l-0.1-0.1
			l-0.2,0.1L993.3,145.8z M990.3,60.4l-0.2,0l0,0.3l0.1,0.1l0.2-0.1L990.3,60.4z M987.5,60.9l0.5,0L987.5,60.9z M978.2,223.5l-0.2,0
			l0,0.3l0.1,0.1l0.2-0.1L978.2,223.5z M991.2,61.3l-0.5,0L991.2,61.3z M995.4,91.2l-0.5,0L995.4,91.2z M998.8,230l0-0.1l-0.4,0
			l-0.1,0.1l0.1,0.1L998.8,230z M978.1,64.3l0.1,0.4L978.1,64.3z M988,65.5h0.5H988z M972.3,65.9l-0.1-0.4L972.3,65.9z M978.2,66.1
			h-0.5H978.2z M999,207.1v-0.4V207.1z M973.8,213.6l0.2,0l0-0.3l-0.1-0.1l-0.2,0.1L973.8,213.6z M982.7,67.2l-0.5,0L982.7,67.2z
			 M968.7,104.5l-0.5,0L968.7,104.5z M992.4,68.4V68V68.4z M971.3,161.6l0.5,0L971.3,161.6z M976.5,69.5v0.4V69.5z M973.2,208.9
			l-0.2,0l0,0.3l0.1,0.1l0.2-0.1L973.2,208.9z M985.4,221.1l0,0.1l0.3,0l0.1-0.1l-0.1-0.1L985.4,221.1z M992.9,71.8l-0.1-0.4
			L992.9,71.8z M991.7,107.8l0-0.1l-0.3,0l-0.1,0.1l0.1,0.1L991.7,107.8z M976.4,224.7h0.8H976.4z M969.3,100.1l-0.8,0.1
			L969.3,100.1z M974.8,59.2l0,0.2l0.1,0.2l0.2-0.1l0.3-0.3L974.8,59.2z M973.7,192.6l0.8,0L973.7,192.6z M986.1,62.5h0.3l0.2-0.1
			l-0.1-0.1l-0.3-0.3L986.1,62.5z M971.2,152.1v0.7V152.1z M991.6,68.4v-0.7V68.4z M979.1,65.9l0.1,0.7L979.1,65.9z M975.4,73.4
			l-0.6,0.1l0.5,0.4L975.4,73.4z M992.6,109.3l0.1,0.7L992.6,109.3z M977.7,218.6h0.8H977.7z M989.7,87.1l0,0.5l0.3,0L989.7,87.1z
			 M970.2,88.3l0.5,0.3l-0.1-0.4L970.2,88.3z M991.4,222.1l0.5,0l-0.2-0.3L991.4,222.1z M970.4,134.6l0.1,0.7L970.4,134.6z
			 M990.2,67.3l0-0.5l-0.3,0L990.2,67.3z M992,238h0.8H992z M975.1,67.2l-0.8,0.1L975.1,67.2z M991.1,90.3l0.5,0.3l-0.1-0.4
			L991.1,90.3z M991.6,107.5l-0.1-0.7L991.6,107.5z M972.1,187.6l0.8-0.1L972.1,187.6z M997.8,229.9l-0.8,0l0.7,0.3L997.8,229.9z
			 M992.5,229.9l0.5-0.2l-0.1-0.2l-0.5,0.2L992.5,229.9z M993,226.3l0.1,0.4l0.5-0.1l-0.1-0.4H993z M982.5,223.9l-0.1-0.4l-0.5,0.1
			l0.1,0.4H982.5z M986.8,222.5l-0.2-1L986.8,222.5z M991.1,219.9h0.8l-0.3-0.2L991.1,219.9z M973.1,73l0.1,1L973.1,73z M982.3,62
			l0.1,0.6l0.4-0.3L982.3,62z M969.8,150l-0.1-0.4l-0.5,0.1l0.1,0.4H969.8z M981.1,60.6l-0.5,0.3l0.1,0.3l0.5-0.3L981.1,60.6z
			 M969.8,144.8l-0.5,0l0.1,0.5l0.2-0.2L969.8,144.8z M984,226.7l-0.4-0.4l-0.3,0.4L984,226.7z M989.7,230l-0.1,0.6l0.4-0.2
			L989.7,230z M971.7,69l-0.2-0.6l-0.5,0.3l0.1,0.3H971.7z M970.5,86l0-0.6l-0.4,0.1v0.3L970.5,86z M974.6,60l0.4,0.4h0.3l0-0.4
			L974.6,60z M992.6,122.5l0.5-0.3l-0.4-0.5L992.6,122.5z M989.2,78.4l0.4-0.1l0-0.6l-0.5,0.3L989.2,78.4z M991.8,227.2l0.2,0.4
			l0.4-0.3l-0.3-0.4L991.8,227.2z M996.5,230l-0.2-0.6l-0.4,0.1l0.1,0.6H996.5z M984,230.4l0.1-0.2l-0.3-0.4h-0.3l-0.2,0.3
			L984,230.4z M990.9,74.5l0.8-0.1l-0.1-0.3l-0.7,0.1V74.5z M997.9,156.8l-0.1-0.9l-0.3,0.5L997.9,156.8z M977.7,69l-0.5,0.1l0,0.3
			l0.3,0.4l0.2,0V69z M992.1,102.2l-0.3,0.6l0.7,0v-0.3L992.1,102.2z M999,224.3l-0.1,0.6l0.4,0.3l0.1-0.6L999,224.3z M992.5,93
			l-0.7-0.1l0.1,0.6l0.6-0.1V93z M986.6,63.8l0.5-0.5l-0.7-0.3l-0.3,0.2L986.6,63.8z M997.8,231.4l0.4,0.3l0.8-0.6l-0.8,0
			L997.8,231.4z M995.3,103.3l-0.3,0.5l0,0.4l0.7-0.1l-0.3-0.2L995.3,103.3z M976.6,70.6l-1,0.1l0.3,0.2l0.4,0.5l0.2,0.1V70.6z
			 M994,122.7l0.2,0.9l0.5-0.1l-0.2-0.8H994z M993.4,227.6l-0.1,0.6l0.4,0.3l0.3-0.6l-0.3-0.3H993.4z M990.7,226.5l0.5-0.3l0.4,0.2
			l-0.1-0.8l-0.2,0.4l-0.7,0.1L990.7,226.5z M990.6,83.4l1.1,0l-0.1-0.3l-1,0.1V83.4z M976.9,76.1l-0.6-0.3l-0.4,0.3l0.2,0.2
			l-0.3,0.2l0.2,0.1L976.9,76.1z M995.3,225l-0.4-0.3l0.1,1l0.6-0.3l-0.1-0.6L995.3,225z M993.3,221.3h-0.6l-0.3,0.6l0.7,0.1
			l0.2-0.1V221.3z M969.7,152.1l-0.1,0.6l0.7,0.3l0.2-0.6h-0.5L969.7,152.1z M994.1,114.7l-0.6,0l0.3,0.4v0.8l0.1,0.1l0.2-0.5
			l0.3-0.2l-0.3-0.2V114.7z M994.3,155.4v0.3l0.3,0.2l-0.3,0.3l0.5,0.4l0.1-0.2v-1l-0.1-0.1H994.3z M974,193.2l0.1,0.6l1-0.1v-0.1
			l-0.4-0.4L974,193.2z M991.7,65.5l-0.5-0.2l-0.3-0.3l-0.1,0.5l0.2,0.4l0.2,0.4L991.7,65.5z M979.9,57.5l-0.1,0.5l0.1,0.5l0.7,0.2
			v-0.5l-0.5-0.4L979.9,57.5z M993.6,226.1h0.3l0.4,0.1l0-0.9l-0.1-0.1h-0.3l-0.1,0.3L993.6,226.1z M972.2,71.5l-0.4-0.1l-0.4,0.6
			l0.1,0.7l0.5-0.3V72l0.3-0.2V71.5z M986.5,61.4l1-0.2l-1.3,0L986,61l-0.7,0.2l0.4,0.3H986.5z M990.1,113.4l0.7,0.5l0.1-0.6
			l0.3,0.2l0-0.4l-1.2,0.1V113.4z M993.5,122.6l-0.7,0.2l0,1.1l0.1,0.1l0.3-0.4l0.4-0.3L993.5,122.6z M999.3,206.4l1,0l-0.3-1
			l-0.7,0.5l0.2,0.2L999.3,206.4z M990.1,74.7l-0.4-0.2l-0.4,0.3l0.1,0.3h0.3l0.3-0.2l0.6-0.1v-0.7l-0.5,0L990.1,74.7z M975.5,69.9
			l0.6-0.1v-0.5l-0.4-0.3l-0.3,0.2l-0.2-0.2l-0.4,0.3L975.5,69.9z M996.7,232.1l1,0.1l0.1-0.3l-0.4-0.3l-0.5,0l-0.7-0.4l-0.2,0
			l0,0.3l0.4,0.1l0.4,0.3V232.1z M994.2,228.7l-0.3,0.4l-0.4,0.5l0.8,0l0.7-0.3l-0.3-0.7l-0.2-0.1l-0.2,0.4L994.2,228.7z
			 M997.2,144.4l-0.2-0.2l0.2-0.5l-0.5-0.3l-0.2,0.1l0.2,0.5l-0.2,0.2v0.6l0.4,0.6l0.1-0.5L997.2,144.4z M990.4,65.8V65l-0.4-0.3
			l-0.3,0.2L989,65l0.1,1h0.6l0.2-0.4L990.4,65.8z M985.6,62.4V62l-0.7-0.6l-0.6,0.1l0,0.6l0.5,0.3l-0.4,0.3h0.9L985.6,62.4z
			 M992,224.8h1.4l0.4-0.4l-0.6-0.3l0.4-0.6l0.5-0.1L994,223h-0.6l-0.3,0.2l-0.3-0.2l-0.4,0.5l0.3,0.2l-0.4,0.3L992,224V224.8z
			 M995.4,120.6l0.5,0v-0.4l-0.2-0.2l0.2-0.2l-0.2-0.7l-0.2-0.7l-0.3,0.5l-0.3-0.1l-0.5-0.3h-0.2l-0.3,0.3l-0.1,0.2l0.6,0.6
			l-0.5,0.8l0.4,0.3l0.3-0.1l0-0.3l0.7-0.3L995.4,120.6z M990.1,224.8l0.4,0.6l0.3,0l0.4-1l-0.3-0.3v-0.4l-0.4-0.7l-0.2,1l-0.5-0.6
			l-0.7,0.5l-0.1-0.7l-0.5,0.2l-0.6-0.7l-0.5,0.2l-0.3-0.2l-0.6,0.1l0.7,0.5l0.8,0.1l-0.2,0.2l-0.2,0.4l-0.3-0.2h-0.5l-0.9-0.3
			l-0.2-0.8l0,0.3l0,0.3l0,0.3l0.1,0.3h0.5l1,0.7l0.5-0.2l0.4,0.2l0.8-0.3l0.2,0.4H990.1z M971.9,79.1l-0.1-0.8l-0.3,0l-0.8,0.7
			l-0.1,0.1l0.5,0.1l-0.3,0.3l0.6,0.3l-0.3,0.3l0.3,0.4l0.2,0.5l0.5-0.2l0.3,0.2l0.4-0.2l0.6-0.1l-0.3-0.3l-0.3,0.2l-0.9-0.1v-0.2
			l0.2-0.2l-0.2-0.2l0.3-0.2L971.9,79.1z M986.8,225.9l-0.3-0.2l-0.6,0.1l1.4-0.1L986.8,225.9L986.8,225.9l0,0.2l0.6,0.1l0.3,0.5
			l0,0.1l-0.3,0l-0.4-0.1l0.1,1.1l0.4-0.5h0.6l0.3,0.2l-0.1-0.5l0-1.1l-0.1-0.1l-0.5,0.2L986.8,225.9z M992.7,71l0.3,0.2L992.7,71
			l0.4-0.4l0.5,0.3l-0.2-0.9l-0.3,0.2l-0.2-0.4l-0.5,0.2l-0.5,0.2l-0.5,0.1l-0.5,0.2l0.7,0.3l0.3-0.4l0.3,0.1l0.1,0.6L992.7,71z
			 M990.6,62.1l0.2,0.4l-0.4-0.3l0.3-0.2l-0.4-0.3l-1.1-0.2l-0.1,0.1l0,0.8l1.1,0.5l0.2-0.1L990.6,62.1z M977.5,59l-0.3-0.2
			l-0.6,0.1L977.5,59l-0.6,0.3l0.7,0.3l0.3-0.2l0.7,0.7l0.4-0.2l0.6-0.1l-0.1-0.3l-0.6,0.1l-1.1-0.6L977.5,59z M981.3,227.1l0.5,0.3
			h0.5l0.5,0.6l0.1-0.5l0-0.4l-0.6-0.7l-1,0.8L981.3,227.1l-0.3-0.1h-0.6l-0.3,0.5l-0.3,0.5l0.7-0.3l0.1-0.3L981.3,227.1z
			 M992.5,113.8l-0.3-0.2L992.5,113.8l0,0.3l-0.3,0.2v0.4l0.6,0.5l0.4,0l-0.2-0.7l-0.2-0.8L992.5,113.8z M998.6,211.7h0.4l0.3-0.2
			l0.6-0.1l-0.2-0.3l0.4-0.2l-0.7,0l-0.1,0.4l-0.3-0.2l-0.4,0.3l0.1,0.3l-0.5-0.2l-0.3,0.4l-0.1,0.1l0.4,0.3l0.4-0.1l-0.3-0.2
			L998.6,211.7z M970.3,124.9l0.2,0.4L970.3,124.9v-0.3l0.3-0.2l-0.1-0.3l-0.2,0l-0.8,0.3l0,0.2L970.3,124.9z M977.5,62.1l-0.3-0.2
			L977.5,62.1l0,0.3l0.4,0.3l0.2-0.1l-0.1-0.8L977.5,62.1z M989.6,68.2l0.5,0.1L989.6,68.2l-0.1-0.6l-0.4,0l0.1,0.6H989.6z
			 M988.3,73.3v0.3l-0.2,0.4l0.4,0l-0.4-0.6L988.3,73.3v-0.3l0.3-0.2l-0.2-0.6l-0.3,0.9L988.3,73.3z M974.3,62l-0.8-0.3l0.1,0.4
			L974.3,62l0.2-0.3L974.3,62z M994.7,230.5l-0.3-0.2l-0.6,0.1l1.5-0.2L994.7,230.5v0.2l0.6,0l0.1-0.1L994.7,230.5z M999.4,188.9
			l0.2,0.2l0.2,0.4l0.2-0.1l-0.2-0.6l-0.3,0.2l-0.2,0.2L999.4,188.9z M973.3,204l0.3,0.7l0.1-0.3l-0.2,0.3l-0.2,0.2L973.3,204z
			 M983.5,227.8l0.4,0.4l-0.1-0.4l-0.5,0l0.4-0.5l-0.5,0L983.5,227.8z M994.8,71.8l0.3,0.2L994.8,71.8l-0.1-0.1l-0.3,0.1l-0.3-0.2
			l0.2,0.1l0.2,0.2L994.8,71.8z M989.1,213.4l0.5-0.1L989.1,213.4l-0.2,0.2L989.1,213.4z M988.3,62.3l-0.4,0l-0.2,0.2l-0.2,0.4
			l0.2-0.4l0.4,0L988.3,62.3l0.2-0.2L988.3,62.3z M977.9,58.1l0.3,0.2L977.9,58.1l-0.1-0.4L977.9,58.1z M993.2,62l0.3,0.2L993.2,62
			l-0.2-0.1l-0.3-0.2l0.2,0.1L993.2,62z M993.5,72.3l0.2-0.1l-0.2-0.1l-0.2-0.4l0.2,0.4V72.3l-0.2,0.2L993.5,72.3z M991.6,108.8
			l0.2-0.2L991.6,108.8l-0.1,0.1l0.3,0.1l-0.2,0.2l-0.4,0.1v0.7l0.5,0.3l0.2-0.4l0.4-0.1l-0.2-0.2l-0.3-0.5L991.6,108.8z
			 M997.2,139.2l0.3,0.2L997.2,139.2l0-0.1l0.2-0.2l-0.2,0.2l-0.2,0.1L997.2,139.2z M999.3,172.2l0.3,0.2l-0.2-0.1l-0.3-0.2
			L999.3,172.2z M977.1,58.1l0.3,0.2L977.1,58.1l-0.3-0.2l0.6-0.6l-0.1-0.4l-0.5,0.6l-0.3-0.3l-0.3,0.2l0,0.4h0.6L977.1,58.1z
			 M989.6,59.8l0.3,0.2l-0.2-0.1l-0.3-0.2L989.6,59.8z M999.9,194.5l-0.5-0.2l-0.3,0.1l0.3,0.3l-0.3,0.3l0.5,0.3h0.6v0.3l0.5,0.1
			l-0.2,0.3l0,0.4l-1.3,0.9l0.8,0.3l0.3-0.2h0.5l0.1,0.6l-0.6-0.1h-0.5l0,0.6l0.6,0l0.4,0.5l-0.2,0.2l-0.2,0.4l-0.9-0.1l0.4-0.2
			l0.4-0.3l-0.6-0.1l-0.5-0.2l-0.2,0.1l0.2,0.2l-0.5,0.4l0.2,0.2l-0.2,0.2l0.7,0.1l0.3,0.4l-0.3,0.1l-0.2,0.4h-0.3l-0.1,0.6h1.2
			l0.1,0.3l-0.6,0.2v0.3l-0.4,0.3l0.9,0.7l0.2-0.1h0.9l0.4,0.4l-1.3,0.1l-0.1,0.1l-0.1,0.4l-0.4,0.8h1l0.8,0.4l-0.3,0.5l0.2,0.4
			l-0.2,0.2l0.2,0.2l-1.3,0.7v0.4l-0.5,0.1l0.2,0.3l-0.7,0l0.1,0.7l-0.8,0.5l0.4,0.3h1.1l0.9,0.5v0.4l0.3,0.2l-0.2,0.2l0.2,0.6
			l-0.3,0.3l-0.4-0.1l0.3-0.3l-0.7-0.1l-0.1,0.3l-0.3,0.2l0.5,0.1l-0.4,0.4l-0.3-0.2l-0.1,0.7l0.4,0.6l0.6-0.2l0.6,0.3l-0.3,0.3
			l0.5,0.4l-0.7,0.1l-0.2-0.5l-0.4,0l0.3,1.1h0.5l0.4,0.3l-0.5,0.4l0.3,0.5l-0.3,0.3l-0.3-0.4v-0.4l-0.5-0.1l-0.1,0.4l-0.6,0.5
			l-0.7,0.3l0.3,0.3v0.5l0.1,0.1l0.8,0.1l0.4-0.2l0,0.5l-0.8,0.9l0.3,0.3l-0.7,0.1l0,0.4l0.3-0.2l0.3,0.2h0.7l0.1,0.2l0.6,0.2
			l-0.9,0.1l0,0.7l-0.2,0.2l0.2,0.2l-0.7,0.5v0.2l0.5,0.1l0.3,0.1l-0.2,0.2l0.3,0.6l0.6,0.1l-0.4,0.2l-0.3,0.6l0.3,0.3l0.7,0.2
			l-0.7,0.2l-0.4,0.3l0.3,0.4l-0.8,0.3l1.1,0.3l0.1,0.2l-0.7,0.6l-0.4,0.2l1.1,0.8l-0.7,0.5h-0.7l-0.4,0.2l-0.1-0.2l-0.1,0.2
			l-0.2,0.2l0.2-0.2l0.2,0l0.4,0.4h1l-0.5,0.6l0.2,0.7l0.5,0.2l-0.1,0.6l-0.3-0.2l-0.1,0.8l-0.1,0.9l-0.4-0.2l-0.3,0.2l-0.2,0.2
			l0.2-0.2l0.7,0.3l0,0.3l-0.7,0.1l-0.1,0.3l-0.9,0.4l-0.5-0.3h-0.7l-0.7-0.9l-0.8-1l0.5-0.1l-0.1-0.6l-0.3,0.2l-0.2-0.4l-0.7,0.5
			l-0.5-0.3l-0.1,0.3l-0.5,0.2l0.5,0.2l-0.7,0.3l-0.3-0.6v-0.2l-0.3-0.1l-0.2,0.6l-0.6,0.1l-0.5-0.6l-0.3-0.5l-0.1,0.6l-0.6-0.1
			h-0.5l-0.6-0.6l0.4-0.1l0.1-0.3l0.2-0.2l-0.5-0.9l0.5-0.2l-0.4-0.4l-0.3-0.2l-0.1,0.4v0.3l-0.4,0.1l-0.1-0.3l-0.2-0.3l0.1-0.7
			l-0.3,0.1l-1.3-0.2l-0.6-0.6l-0.8,0l0.3,0.6l0.3-0.2l0.1,0.7l-0.4,0.6l-1.2,0.4l0.9,0.1l0.3-0.2l0.2,0.2l0.4-0.2l0.5,0.2h0.7
			l0.5-0.2l0.2,0.8l0.3,0.3l-0.7,0l0.2,0.5l-0.4,0.3l-0.3-0.2l-0.4,0.3l0.2,0.2l-0.6,0.1l0.1-0.3V231l-0.3-0.1l-0.4,0.3l0,0.5
			l0.7,0.4l-0.9,0.5l0,0.6l0.7,0.1l0.4-0.5l0.8,0l0.3,0.2l-0.3-0.2l0.1-0.1l0.6-0.1l1.1,0.7l0.3-0.2h0.5l-0.1,0.3v0.4l0.3,0.2
			l-0.2,0.2l0.3,0.3l-0.3,0.4v0.4l0.3,0.3l0.6-0.4h1.1l0.1-0.6l0.6-0.1h0.5l0.7-0.5v-0.4l-0.5-0.5l0.5-0.1l-0.2-0.5l0.3-0.1l0.2,0.1
			l0.8,0.5l-0.2,0.5l0.7,0.1l-1.2,0.4l0,0.4l0.4-0.2l0.1,0.3l-0.7,0.1l-0.2,0.4l-0.7,0.1l0.5,0.5v0.4l0.3,0.2v0.5l0.4,0.1l0.3,0.5
			l-0.6,0.2l0.6,0.3v0.6l-0.5,0.2l0.3,0.2l-0.4,0.3l-0.2-0.4l-1-0.2l0.5-0.2l-0.7-0.2l-0.4,0.5v0.3l-0.6,0.1l-0.3-0.2l-0.3,0.2
			l-0.6-0.1l0.3-0.3l0.6-0.1l0.1-0.3l-1-0.2l0-0.1l0.5-0.2l-0.2-0.5l0-0.7l-0.8,0.2v0.6l0.3,0.3l0,0.2l-0.9,0.8h-0.6l-0.1,0.6
			l-0.2-0.3l-1.5-0.1l-0.2-0.4l-0.6-0.3l-0.4-0.5l-0.8-0.1l-0.6,0l-0.4-0.7h0.9l0.3,0.2l0.4-0.3l-0.3-0.2v-0.2l0.5-0.1l0.1-0.3
			l0.6-0.1l0.3-0.2h0.3l0.2-0.4l0.4,0.3l0.2,0.3l0.1-0.3l0.6-0.1l0.6,0.2l0.2-0.4l0.3,0.2l0-0.6l-0.4,0.2l-0.2-0.6l-0.3-0.3h-0.5
			l-0.7-0.6l-0.4,0.5l-0.5-0.7l-0.8,0.4l-0.2-0.2l-1.2-0.1l0.8-0.5l-0.4-0.5h-0.5l-0.3,0.2l-0.7-0.9l0.5-0.1l-0.5-0.3l0,0.4
			l-0.5,0.2l-0.5,0.2H981l-0.2,0.5l0.5,0.4l0.3,0.2l-0.3-0.2l0.1-0.2h0.7l0.7-0.2l0,0.3l-0.7,0.1l0.1,0.8l0.3-0.2h0.5l-0.1,0.5
			l0.3,0.4h-1.8l-0.5,0.4h-0.5l-0.2,0.2l-0.4-0.3v-0.4l0.1-0.1l1.3,0l0.4-0.4l-0.5,0.1l-0.1,0l-0.6-0.3v-0.4l-1-0.1l0.1,0.2
			l-0.3,0.4l-0.1-0.4l-0.1-0.3l-0.2,0.6l-0.3,0.2l-0.3-0.2l-0.3,0.2h-1.2l0.6-0.8l0.6-0.1l0.1-0.7l-1.2-0.3l-0.6-0.6l0.5-0.2
			l-0.8-0.5l0.2-0.1l0.8,0l0.1,0.6l0.7,0.1l0.2,0.2h1.3l0.3,0.2l0.5-0.2l0.4-0.1v-0.2l1.4-0.7l0.6-0.3l0.3-0.1l0.3-0.2l-0.7-0.3
			l-0.2,0.4l-0.3,0.1l-0.2-0.8l-0.6-0.3h-1.6l-0.9,0.7l-0.1,0.3l-0.7,0.3l-0.3-0.2l-0.5,0.2l-0.4-0.3v-0.7l-0.8-0.1l0-0.4l-0.1-0.7
			l0.8,0l0.3-0.2l0.6,0.6l-0.6,0.2l0.4,0.4l0.6-0.2l0.3,0.2l0.2-0.2l0-0.2l0.3-0.2l0.5-0.1l-0.5,0.1l-0.3,0.2l-0.3,0.1l-0.2,0.1
			l-0.3-0.4l0.5-0.1l0-0.3l-0.7-0.2l-0.1-0.2l-0.1-0.2l-0.2-0.3l0.8-0.4l-0.7-0.3l1.3-0.3l0.1,0.3l0.1,0.1l0.3,0l0.3-0.3l-0.2-0.3
			l0.4-0.5h0.5l0.3,0.4l0.1-0.7l-0.3-0.3l0.6-0.3l-0.1-0.3l-0.9,0.4l-0.1-0.6l0.2-0.2l-0.2,0.2l-0.3,0.4l-0.9,0l-0.3-0.5l-0.1,1.1
			l-0.4,0.3l-0.9-0.2l-0.1-0.4l-0.5-0.1l-0.1-0.5l-0.2-0.1l-0.5,0l0.5-0.6l0-0.4l0.1-0.1l0.3,0.2l0.2-0.2l1.1,0l0.2-0.2h1l0.8-0.9
			l0.3,0.2l0.1-0.3l-0.6-0.1l-0.6,0.4l-0.1-0.7l-0.4-0.4l-0.3,0.1v0.3l-0.4,0.1l-0.3,0.5l0.2,0.2l-0.4,0.1l-0.2-0.4l-0.3-0.1
			l-0.8-0.7l-0.3-0.5l0.4-0.3l0.7,0.2l-0.3,0.5l0.5,0l-0.2-0.4l0-0.2l0.4-0.1l-0.3-0.4h0.4l0.4,0.4l-0.6,0.3l0.7,0.4l0.1-0.2
			l0.3-0.3l0.2-0.2l-0.5-0.3l0.4-0.1l-0.6-0.6l-0.9,0.4v0.3h-1v-1l-0.4-0.3h-0.4l-0.8-0.5l0-0.3l0.4-0.1l0.2-0.4l0.3,0.2l0.8-0.2
			l0.1-0.5l-0.4-0.3h-1.3l-0.1-0.8l-0.1-0.7l-0.3,0.5l-0.4-0.6l0-1.3l-0.7,0.1l-0.3-0.5l0.5-0.1l0.2-0.2l0.2,0.4l0.4,0l0.2-0.4
			l0.2-0.2l-0.3-0.2V212l0.5-0.1l-0.5-0.5v-0.6l-0.8-0.6l-0.1-0.5l-0.3,0.2h-0.5l-0.1-0.4l0.4-0.1l0.2-0.9l0.3,0.6l0.1-0.8l0.5-0.1
			l0.1-0.3l-0.5-0.2l0-1l0.8-0.1l-0.3-0.3l0.2-0.7l-0.6,0l-0.1-0.3l0.3-0.3v-1.5l-0.3-0.2l0.1-0.1l0.6-0.1l0.2-0.4h0.6l0.1,0.4
			l0.5,0.1l0.3,0.4l0.5-0.5l-0.3-0.3v-1.3l-0.3-0.1l-0.4,0.3l-0.1,0.5l-0.3,0.1l-0.8-0.7l-0.4-0.7l0.7-0.1l0.3-0.2h0.8l0.3-0.2
			l0.4-0.1l-0.7-0.2l-0.4-0.4l0.2-0.2l-0.2,0.2l-0.4,0l-0.3-0.2l-1.2,0.3l-0.8,0.1l-0.1-0.3l0.7-0.4l0.5-0.6h0.3l0.1,0.6l0.4,0
			l0.1-0.3l-0.3-0.2v-0.6l0.3-0.2v-0.4l-0.3-0.7l-0.6-0.1l-0.4-0.3l-0.4,0.5l-0.4-0.6l0.5-0.1l-0.2-0.3l0.4-0.5l0.2,0.9l0.3-0.2
			l0.6-0.1l0.1-0.8l0.8-1l-0.2-0.2l-0.6,0.2l-0.1-0.3l-0.2-0.1l-0.6-0.2l0.7-0.1l0.1-0.5l-0.2-0.2l0.2-0.2v-1.4l-0.2-0.2l0-0.7
			l-0.6-0.2l0.5-0.1l0.1-0.2v-1.2l-0.6-0.2l0.5-0.2l-0.3-0.4h-0.6l-0.7-0.8l1.3-0.1l0.3-0.3l-0.3-0.2v-1.3l-0.5-0.1l0.5-0.3l0-0.4
			l-0.5-0.8l0.2-0.2v-1.2l-0.4-0.3l-0.2,0.8l-0.4,0.3l-0.2-0.4l-0.3,0.2l-0.1-0.3l0.2-0.6l-0.3-0.2l0.3-0.3l0.8,0.2l0.4-0.3l0-0.5
			l-0.6-0.3l0.3-0.5l-0.3-0.2l0.8-0.4l0-0.3l-0.4-0.1l-0.3-0.3v-0.6l-0.5-0.6h0.4l0.2-0.3l-0.7-0.3l0.6-0.6l-0.2-0.2v-0.7l-0.2-0.2
			l0.2-0.3l-0.3-0.5l0.3-0.3l-0.2-0.2l0.3-0.5l-0.5-1.3l-0.3-0.2l0.5-0.5l0-0.2l-0.4-0.1l0-0.9l0.2-0.4l-0.3-0.2l0.2-0.2l0-0.7
			l-0.2-0.2l0.6-0.1l0.3,0.3l0.1-0.5l-1,0l-0.4-0.7l0.3-0.3l-0.2-0.2l0.2-0.2l-0.2-0.2v-1.4l0.1-0.1l0.3,0l0.1-1.3l0.4,0.2V163
			l0.2-0.2l-0.2-0.4l-0.1-0.4l-0.2,0.2l-1.1,0l0.1-0.4v-0.3l0.2-0.1v-0.8l-0.4,0.2l-0.3-0.5l0.3-0.3l-0.3-0.4l0.4-0.1l0.1-0.8
			l0.1-0.1l0.6,0.2l0.1-0.1l0-1.5l-0.3-0.4l-0.4-0.6l-0.8-0.2l-0.2-0.4l-0.2-0.5l0.8-0.5l-0.8-0.4l0-0.4l-0.2-0.2l0.2-0.2l-0.3-0.2
			V152l-0.3-0.2v-0.4l0.5-0.5l-0.5-0.2l0.8-0.5l-0.8-0.1l-0.1-0.7l0.2-0.2v-0.9l0.4-0.1l0.3,0.2h0.5l0.1-0.2l0-1.7l0.2-0.2l-0.9-0.6
			l-0.4,0.5l-1-0.4l0.5-0.6l-0.2-0.2v-0.5l-0.6-0.9l0.3-0.3l-0.2-0.2v-0.4l0.3-0.2V142l0.5-0.1l0-0.9l-0.8-0.6l0-0.2l0.3-0.3
			l-0.2-0.2l0.2-0.2l-0.7-0.5l0.4-0.2l0-0.2l-0.3-0.2l0.4-0.3h1.3l0.1-0.1l0-0.9l-0.5-0.3v-0.4l0.5-0.3l0-0.7l-0.4-0.1l0-0.4
			l0.3,0.2l0.2-0.3l0.4-0.1l-0.2-0.9l0.3-0.3l0.7-0.1l0.1-1.1l-0.9-0.6h-0.5l-0.3-0.3l0.2-0.2v-1.3l0.3-0.2l-0.2-0.4l-0.2-0.4h-0.8
			l-0.7-0.2l0.3,0.4l-0.4,0.3l-0.2-0.1l-0.5-0.7l0.8-1.1l0.7-0.1l-0.4-0.3l-0.5,0.2l-0.4-0.4v-0.4l0.2-0.5l-0.6-0.2l0.3-0.6l0.3-0.7
			l0.3-0.6l0.4-0.4l0.3,0.3l0.1,0.3h0.9l0.6-0.7l0.6-0.7v-0.3l-0.7-0.1l-0.2-0.5l-0.5,0.6l-0.4-0.7v-0.8l0.3-0.2v-0.4l-0.6,0.1
			l-0.4-0.3l0.5-0.1l0.8-0.3l0-0.3l-0.4-0.1l-0.1-0.5l0.3-0.2l-0.5-0.9l0.3-0.2v-0.6l0.3-0.2l-0.3-0.4l0.8-0.1l0.1,0.6l0,0.6
			l0.8-0.3v-1.2l-0.4-0.3l0.2-0.6l-0.4-0.1l-0.3,0.2L969,115l0-0.5l0.1-0.3l0.4-0.7l-0.3-0.2v-0.5l0.5-0.1l0.1,1.3l0.4,0l0.1-0.1
			l0-2.6l-0.2-0.2l0.2-0.2v-0.6l0.3-0.3l-0.1-0.1l-0.6,0.1l-0.7,0.1l-0.3-0.4l0.5-0.2l0.3-0.6h-1.1l-0.6,0.6h-1l-0.1-0.3l0.4-0.6
			l0.3,0l0.1-0.3l0-0.4l0-0.3l-0.2,0.8l-0.4,0.1l-0.1-0.2l0.3-0.8l0.6-0.1l0.3-0.2l0.4,1.1h0.4l0.1-0.1l0-0.4l0.3-0.2l-0.6-0.5
			l0.4-0.3l0.4,0.3v0.5l0.5,0.1l0-0.8l0.2-0.4l-0.6-0.3l-0.2,0.2l-0.7-0.4l-0.2-0.8l-0.3,0.8l0.2,0.1l-0.6,0.8l-0.3-0.4l-0.3,0.2
			l-0.7-0.5v-0.2l0.4-0.1l0.1-0.1l0-1.3l-0.5-0.1l0-0.1l0.5-0.4l0.2-0.6l0.1,0.5l0.3,0.2v0.4l-0.3,0.2l0,0.3l0.4,0l0.2-0.9l0.2,0.2
			l1-0.7l-0.4-0.3h-0.6l-0.2,0.7l-0.4-0.4l0.3-0.3l-0.4-0.7l-0.3,0.2l-0.1-0.8l0.2-0.1l0.2,0.4l0.2-0.3l0.3-0.3l-0.4-0.5l-0.2,0.4
			l-0.7-0.3l0-0.3l0.9,0l0.4-0.3v-0.4l-0.6,0.1l-0.4-0.2l-0.2-0.3l0.6-0.1l0.3,0.2l0.1-0.1l0.1-1.2l0.6-0.1l0.2,0.8l0.4-0.2L970,99
			l-0.6-0.3l0.8-0.1l-0.2-0.2h-0.4l-0.1-0.6l0.4,0.2l0.1-0.8l0.4-0.3l0.3,0.2l0.4-0.6l-0.5-0.1l-0.1,0.2l-0.6-0.1l-0.2,0.8l-0.2-0.8
			l-0.3-0.1l-0.3,0.5l-0.1-0.1l0-0.9l0.4,0.3l0.1-0.5l0.3-0.2v-0.4l-0.4-0.3l-0.2,0.8l-0.5,0.1l0.2-0.4l-0.2-0.2l0.2-0.3l-0.1-0.7
			l0.5,0.4l0.7-0.3l0-0.4l-0.6-0.5l0.5-0.8l-1.2-0.5l-0.1,0.3l-0.6,0.1l-0.3-0.2l-0.2,0.2l-0.4-0.3v-0.7l0.3-0.1l0.3,0.7l0.1-0.1
			l0-0.1v-2.1h0.5l-0.2,0.2v0.9l0.4,0.5l0.3-0.2L970,91v-0.8l-0.4-0.1l0.7-0.5l-0.5-0.2l0.3-0.2l-0.8-0.5l0.4-0.3l0.4-0.4l-0.8-0.8
			l0-0.2l0.7-0.1l0.1-0.3l0.5-0.1l-1.2-0.2l-0.2-0.4l-0.2-0.4l0.8-0.4v-1l-0.4-0.1l-0.1-0.4l1-0.1l-0.7-0.4V82l-0.3-0.2l0.7-0.4
			l-0.2-0.6l0.3-0.3v-0.6l-1-0.6l0-0.3l0.8-0.1l-0.3-0.3l0.3-0.2l-0.4-0.1l-0.4-0.7l0.5-0.1l0.2-0.8l0.4,0.3v0.4l0.4,0.4l0.6-0.1
			l0.6-0.2v-0.9l0.3-0.2v-0.7l-0.3-0.3H971l-0.2,0.2l-0.2,0.1l-0.9,0l-0.1-0.2l0-1l0.3-0.2l-0.2-0.2l0-0.9l0.2-0.2l-0.2-0.2l0.2-0.2
			v-0.6l-0.3-0.3l0.8-0.8V70l-0.5-0.4l0.2-0.2l-0.5-0.4l0.2-0.2l-0.5-0.2l0.7-0.3l0.3,0.2l0.1-0.1l0-1.1l-0.7-0.1l0.3-0.4l0.4-0.4
			l-0.3-0.6l0.5-0.1l0.2,0.5l0.5-0.6l-0.3,1.1l0,1l1-0.2l0.1-0.4l-0.4-0.1l-0.4,0.3l-0.1-0.4l0.4-0.1l0.4-0.3v-0.7l-0.3-0.3l0.3-0.4
			l0-0.2l-0.3-0.1l-0.3,0.2l-0.1-0.3l0.8-0.5v-1.4l-0.8-0.1l1-0.4l0.7,0.7l1.2-0.3l-0.4-0.3h-1.1l0.1-0.6l0.5,0.4l0.1-0.5l-0.8-0.3
			l0.7-0.4l-0.6-0.2l0.6-0.1l0.5,0.4l1.3-0.2l-0.3-0.3l-0.7-0.3l-0.5,0.2l-0.1-0.5l1.1-0.4l-1.4-0.5l-0.4,0l-0.3,0.2l-0.1-0.3l1-0.2
			l0-0.3l-0.4-0.5l-0.8-0.2l-0.1-0.1l0.9-0.1l1.1,0.6l0.1-0.6l0.6,0.6l0.3-0.2l0.4,0.3l-0.4,0.5l-0.6-0.4l-0.4,0.1l0.3,0.3l0.1,0.3
			h0.8l0.3,0.2l0.4-0.8v-0.8l-0.3-0.3l0.7,0l0.2-0.4l0.5,0.1l0.6-0.4l0.5-0.2l0.6,0.5l-0.2,0.2l0.4,0.3l0.5-0.5l0.1-0.6l0.1,0.7
			l0.3-0.2h0.9l0.1,0.3l-0.8,0.3l0.9,0.1l0.3,0.4l0.1,0l-0.2,0.3l0.6,0.5h0.6l0.1,0.8l-0.2-0.1l-0.1-0.4l-0.4,0.8l1.2,0.1l0.1,0.2
			l-1.6,1v0.4l0.4,0.3l0.3,0l0.6-0.7h0.7l0.4,0.4l0-0.5l1.5-0.7l0.2,0.1l0.1,0l0.1-0.3l-0.4-0.3l-1.1,0.6l-0.9-0.3l1.2-0.3l0.4-0.4
			l0.8-0.1l-0.4-0.3l-0.4,0.2l-0.8-0.3l-0.9-0.2l0.7-0.2l0.2-0.2l0.7,0l0.1,0.3l0.5-0.1l0.4,0.2l0.2-0.2l0.6,0.5l0.4-0.2l0.9,0.7
			l-0.3,0.3l0.6,0.5l0.2-0.4l0.4-0.1l0.1-0.3l1.3-0.2l-1-0.3l0.8-0.2l0.1-0.2l0-0.4l0.8,0.3l0,0.2l-0.6,0.2l0.4,0.7l0.4,0l0.1-1.5
			l0.7-0.1v-1.2l0.4,0.1h0.5l0.4-0.3l-0.3-0.2l0.4-0.3l0.1,0.1l0.1,0.9l0.2,0.1l-0.4,0.6h-0.6l-0.2-0.4h-0.3l0.1,0.5l-0.7,0.4
			l-0.2,0.4l-0.1,0.4l0.3,0.1l0.3-0.5l0.2,0.4l0.9,0.1l0.1-0.1l0.1-0.5l0.5,0l-0.3,0.3l0.8,0.4l-0.5,0.1l0,0.6l0.4-0.3l0.1,0.3
			l-0.7,0.5l-0.8-0.5l0.3-0.4l-0.3-0.3l-0.8,0.2l-0.7-0.1l0.3,0.3v0.9l0.7,0l0.5,0.4l0.9-0.1l0.1,0.3l0.4,0.1l0.3,0.3V62l-0.6,0.3
			l0.3,0.3l-0.4,0.1l-0.3-0.2l-0.2,0.6l-0.3,0.1l-0.2-0.4l-1.2-0.1l-0.1,0.6l-0.4-0.3l-0.1,0.5l1,0.2l0.2,0.4l0.2-0.5l0.2-0.1
			l0.4,0.2l0.4,0.3v0.4l-1.4,0.8l-0.3-0.2l-0.1,0.3l0.5,0.1l0.1,0.6l0.2-0.6l0.6,0.1l0.3-0.6l0.1,1.2l0.5,0.1l-0.5,0.7l-0.5,0.1
			l-0.1,0.5l0.4,0.3h0.5l0.3-0.2h0.6l0.1,0.3l-0.4,0.3l-0.6-0.1l-0.1,0.5l0.4,0.3l0.4,0.1l-0.1,0.6l0.3-0.1l0.1,0.5l-0.5,0.3
			l-0.6-0.7l-0.2,0.6l0.2,0.2l0,0.7l0.3-0.3l0.7-0.3l0,0.3l-0.5,0.1l0.2,0.1h0.1l0.4,0.6v1l-0.1,0.1h-0.6l-0.2-0.2h-1.1l-0.3,0.2
			l-0.3-0.2l-0.5,0.4l-0.4,0.1v0.5l0.7,0.5l0.4-0.6h0.5v0.5l-0.4,0.6l-0.2-0.2l-0.4,0.2l0.3,0.6l0.6-0.1l0.1,0.5l-0.4,0.3l-0.3-0.2
			l-0.6,0.3l0,0.3l0.4-0.2l0.1,0.3l-0.5,0.4l0.1,0.6l0.3-0.2l0.2,0.2l0.9,0.1l0.3-0.5l0.1,0.5l-0.4,0.6l-0.9-0.4l-0.1,0.3l0.8,0.3
			l0.8,0l0.1,0.3l-0.4,0.7l-0.5,0.4l0.1,0.3h0.3l0.4,0.3V82l-0.8,0.5l-1-0.4v1l0.7,0.3l0.7-0.6l0.4,0.5l0.3,0.2V84l0.3,0.2l-0.5,0.4
			v2l0.4,0.3h0.9l0.5-0.4l-0.4,1l0,0.1l0.5,0.4v0.3l-0.5,0.1l-0.5-0.4l-0.5-0.2l-0.6,0.5l0.2,0.2V89l-0.6-0.1l-0.1,0.1l0,0.6
			l0.6,0.1l0.3,0.2h0.5l0.5-0.9l0.6,0.4v0.6l0.2,0.2V91l-0.4,0.1l-0.1,0.5l0.5,0.3l-0.1,0.6l-0.5,0l-0.5-0.3l-0.3,0.2l-0.2-0.3
			l-0.6-0.1l-0.7,0.6v0.6l0.3,0.2V94l0.3,0.2v1.1l0.4,0.3l0.6,0l0.1,0.5l0.4-0.1h0.5l0.3,0.2l0.3-0.2l0.1,0.3l-0.5,0.4v0.7l-0.5,0.3
			l-0.2-0.2l-0.1,0.1l0,1.2l0.1,0.2l0.6,0.1l0.1,0.2l0,1l0.2,0.2l-0.2,0.4l-0.3,0.5l0.5,0.3l0.3-0.2l0.1,0.5l-0.2,0.2l0,0.5
			l-0.2,0.2v0.8l0.6,0.3l-0.3,0.3l-0.4,0.2l-0.4,0.1v0.5l-0.8,0.6l-0.3,0.9l0.7,0.6l0.7-0.7h0.6l0.4,0.6l-0.8,0.5h-0.9l-0.6,0.7
			l0.7,0.6l0.2-0.2l0.5,0.2l0.4-0.2l0.6,0.5l-0.5,0.4v0.2l-0.6-0.1h-0.5l-0.2,0.8l-0.4-0.1h-0.5l0,0.6l0.4-0.2l0.3,0.4h0.6l0.4,0.2
			l-0.4,0.4l-0.6-0.2l-0.3-0.2l0.3,0.2l0.5,0.9l0.4,0.8h0.2l0.7,0.5l-0.9,0.5l-0.3-0.2H995l0.1,0.5l-0.3,0.3l0.6,0.6l-0.3,0.5
			l0.4,0.7l0.1-0.8l0.1-0.7l0.2,0.3l0.6-0.1l0.4,0.3v1.6l-1.1,0.4l0.5,0.1l0.1,0.3l0.2,0.1l0.1,0.1l0,0.8l-0.2,0.2v0.9l0.5,0.3v0.7
			l0.3,0.2v1.1l-0.7,0.5h-0.6l-0.6,0.4l0.2,0.3l0.5-0.2l0.4,0.3v0.6l0.8,0.6l-0.5,0.8l0.2,0.2l-0.2,0.2l0.7,0.9v1.1l-0.3,0.2
			l0.2,0.1l0.1,0.2l0,1l-0.4,0.3l-0.4,0.1l-0.1,0.5l-0.1,0.1l-1.3,0l-0.3-0.2l-0.1,0.4l-0.6,0.2l0.8,1.4v0.6l0.5,0.3l0.5-0.2
			l0.1,0.3l0.3,0.1l0.5-0.3l-0.6-0.2l0.2-0.2L996,133l-0.2,0.2l-0.1-0.3l0.6-0.1l0.2-0.4l0.6,0.3l0.3,0.5v0.6l0.3,0.2l-0.8,0.6
			l0.2,0.2L997,135v0.4l0.4,0.3l0.6,0.1v1.4l-0.6,0.1l-0.6,0.1l0.2,0.5l0.1,0.4l0.4-0.2l0.3,0l0.2,0.6l0.2,0.2l-0.3,0.5v0.8l0.2,0.2
			v0.7l-0.2,0.4l0.3,0.3l-0.4,0.1l-0.2,0.4l-0.1,0.4l1,0.2v0.6l0.3,0.3v0.9l-0.2,0.2l0.2,0.2v0.9l-0.3,0.2v0.4l0.3,0.2v0.4l0.3,0.3
			v1.9l0.2,0.2v2.6l0.3,0.7l-0.2,0.2l0.3,0.2v1.3l-1.1,0.5l0.5,0.2l-0.2,0.5v0.9l-0.3,0.2l0.4,0.5l0.3-0.2l0.1,0l0.1,1.8l0.2,0.2
			v0.8l-0.2,0.7l0.3,0.2v2l-0.3,0.2v2l0.3,0.2v0.4l-0.3,0.3l0.3,0.4l-0.1,0.5l-0.1,0.5l0.3,0.2l-0.5,0.4l0.2,0.4l0.2,0.4h0.3
			l-0.2,0.9l0.3,0.3v0.7l-0.4,0.1l-0.1,0.5l0.4,0.6l0.4,0.1v1.9l-0.4,0.1l-0.1,0.4l-0.1,0.3l0,0.4l0.6-0.4l0.3,0.3l-0.2,0.8l0.3,0.4
			v0.4l-0.3,0.2l0.3,0.4v0.6l-0.2,0.2l0.5,0.4v0.7l-0.2,0.2v0.6l-0.2,0.4l-0.9,0.1l0.9-0.1l0.2,0.4l-0.6,0.3l-0.5,0.1l0.3,0.3
			l1.3,0.3l-1.2,1h-0.5l-0.1,0.8l0.2,0.1l0.5,0l0.3,0.2l-0.3-0.2l0-0.3l0.5-0.1v1.4l0.3,0.2l-0.6,0.5l-0.4,0.1l0.3,0.5l-0.5,0.1
			l-0.1,0.8l0.5,0.1l-0.2,0.5l0.1,0.1l1.2,0v0.3l-0.6,0.2l0.6,0.2l0,0.3l-0.2,0.7l1,0.2l-0.6,0.1l0.1,0.5l-0.5,0.2l0.3,0.2v0.3h-0.7
			l-0.4,0.3l0.5,0.4l-0.3,0.5l-0.4-0.2l-0.5-0.1l0.5,0.1v0.6l-0.5,0.3l0,0.3l0.1,0.1l0.7-0.4l1,0l0.2,0.1l-0.3,0.2l0.3,0.3l-0.8,0.1
			l0.2,0.3l-0.2,0.2l0.1,0.1l0.6,0.1l-0.3,0.4l-0.4-0.2L999.9,194.5z"/>
		<polygon class="st0" points="987.8,56.6 987.7,56.8 988.5,56.9 988.1,57.5 987.2,57.5 987.2,57.9 987.7,58.2 987.5,58.5 
			987.9,58.6 988.1,58.6 988.9,58.1 989.9,58.1 990.4,57.9 989.2,57.3 989,57.1 989.2,56.9 989.7,57 989.8,56.6 		"/>
		<polygon class="st0" points="967.8,110.7 967.1,111.1 967.9,111.2 967.1,111.1 967.1,111 967.3,111.4 967.4,111.5 967.1,111.7 
			967.2,112.7 967.9,111.9 968.3,112.4 969.4,112.4 969.8,111.8 969.3,111.5 969.1,110.9 968.6,111.6 968.4,110.8 968.1,110.5 		"/>
		<path class="st0" d="M985.8,56.8l0,0.4L985.8,56.8z M984.1,56.5l0.4,0.6l0.2-0.4l0.3,0.5l0.1,0.4h0.4l0.3,0.2l0.3-0.2h1.2l0-0.4
			l-0.5,0l0-0.3l-0.2-0.2l-0.1-0.3l-0.7-0.2l-0.2,0.4l-0.4,0L985,56L984.1,56.5z"/>
		<polygon class="st0" points="982.7,235.3 982.5,235.3 982.4,235.8 981.5,236.3 981.3,236.1 979.9,236.1 979.7,236.3 977.9,236.4 
			978.3,236.8 979.7,236.8 980.2,236.3 980.7,236.6 981.3,237 981.7,236.9 981.7,236.7 982.3,236.4 983,236 982.9,235.5 
			983.2,235.5 983.2,235.3 		"/>
		<path class="st0" d="M984.4,235.3L984.4,235.3l0.2,0.1l-0.1,0.1L984.4,235.3z M983.6,234.4l-0.3,0.4v0.4h0.7l0.3,0.6l-0.2,0.2
			l0.1,0.1l0.3,0l0.4-0.4l0.5-0.4l0.6-0.1l-0.4-0.6H985l-0.3-0.2L983.6,234.4z"/>
		<polygon class="st0" points="997.1,235.3 997,235.4 997.2,235.6 997,235.4 996.5,235.5 996.2,235.8 997.5,236 997.7,236.3 
			997.9,236.2 998.3,236.4 999,236.1 999.5,236.6 999.5,235.9 998.5,235.9 997.9,235.3 		"/>
		<polygon class="st0" points="967.7,95.3 967.5,95.6 967.3,95.4 966.7,96 966.6,96.2 967,96.5 968.1,96.5 968.5,95.7 968.2,95.6 
			968.1,95 		"/>
		<polygon class="st0" points="998.1,234.2 998,234.3 998,234.7 998.3,234.9 998.4,235.5 999.1,235.3 998.7,235.3 998.7,234.8 
			999.1,235.3 999.6,235.2 999.6,234.5 999.2,234.2 		"/>
		<polygon class="st0" points="967.6,130.1 967.9,130.5 967.7,130.7 967.7,131.8 969.2,130.6 968.2,130.3 968,129.7 		"/>
		<polygon class="st0" points="979.7,237.7 979.1,238.3 979.9,238.3 980.5,238.9 980.5,238.9 980.7,238.5 981.2,238.5 981.5,238.3 
			982.2,238.2 982.1,237.9 981.6,238.1 981.1,238.2 980.7,238.3 980.2,237.7 		"/>
		<polygon class="st0" points="966.9,119.5 966.9,119.7 967.1,120 966.9,120.3 967.3,120.3 967.4,120.4 967.4,121.5 967.2,121.7 
			967.6,122.1 968.2,122 967.7,121.2 967.7,119.9 967.3,119.4 		"/>
		<polygon class="st0" points="968.2,135.2 968.2,135.7 967.9,135.9 968,136.7 968.4,136.7 968.8,136.2 969.3,136.2 969.2,135.6 
			968.8,135.8 968.7,135.1 		"/>
		<polygon class="st0" points="988.6,54.8 988.7,54.9 988.9,54.4 989.2,54.7 989.8,54.8 989.6,55 989.8,55.1 990.9,54.6 990.5,53.9 
			990.3,54.6 988.9,54.2 988.6,53.8 		"/>
		<polygon class="st0" points="971.7,193.6 971.6,193.7 971.6,194.8 972.3,195.1 972.4,195 972.4,193.8 972.3,193.6 		"/>
		<polygon class="st0" points="992.9,54.7 992.5,55.2 992.9,55.5 993.5,55.4 993.7,55.8 994,55.4 993.6,55 993.7,54.7 		"/>
		<polygon class="st0" points="988.5,55.1 988.5,55.9 988.9,56.2 989.4,56 990.1,55.8 989.4,55.7 988.9,55.1 		"/>
		<polygon class="st0" points="994.9,75.4 994.9,76.2 994.4,76.3 994.4,76.6 995,76.7 995.6,75.9 995.3,75.4 		"/>
		<polygon class="st0" points="994.8,80.9 994.9,81.5 995.3,81.5 995.6,80.9 995.4,80.7 995.7,80.5 994.7,80.4 		"/>
		<polygon class="st0" points="968,132.6 968,134.5 968.4,134.3 968.2,134.2 968.2,133.4 968.7,132.6 		"/>
		<polygon class="st0" points="994.6,73.3 994.6,74.1 994.4,74.5 995,74.5 995.5,74.2 994.7,73.2 		"/>
		<polygon class="st0" points="994.1,63 994.1,63.7 994.5,64 994.9,63.7 994.7,62.9 		"/>
		<polygon class="st0" points="974,219.2 974.1,219.5 974.5,219.6 974.7,220 975.1,219.9 974.8,219.7 975.1,219.4 974.8,218.9 		"/>
		<polygon class="st0" points="967.3,115.9 967.6,115.9 967.8,115.5 968.2,115.5 967.7,115.2 967.3,114.8 		"/>
		<polygon class="st0" points="996.2,111 995.9,111.3 995.9,111.6 996.7,111.3 996.7,110.8 996.3,110.5 		"/>
		<polygon class="st0" points="994.9,82 994.9,82.3 995.3,82.4 995.8,82.6 996,82.2 995.4,81.9 		"/>
		<polygon class="st0" points="995,77.6 994.7,77.9 995,78.2 995.3,78.2 995.5,77.8 995.9,77.6 		"/>
		<polygon class="st0" points="994.6,83.4 995,83.7 995.6,83.6 995.4,83.3 995.9,83.2 995.9,83.1 995.3,83 		"/>
		<polygon class="st0" points="967.5,117.5 967.4,117.6 967.9,117.8 968.3,118.1 968.7,118.1 968.5,117.8 968.3,117.5 		"/>
		<polygon class="st0" points="971.5,184.9 971.7,184.5 972.1,184.4 971.8,183.8 		"/>
		<polygon class="st0" points="989.8,233.1 989.9,233.5 990.5,233.5 990.8,233.7 990.9,233.5 990.6,233.1 		"/>
		<polygon class="st0" points="991.4,56.8 991.1,57 992,57 991.7,56.7 991.5,55.8 		"/>
		<polygon class="st0" points="1000.3,200.6 999.9,200.9 999.9,201.2 1000.3,201 1001,201 1000.9,200.6 		"/>
		<polygon class="st0" points="988.8,239.9 988.9,240.3 989.3,240 989.7,240.5 989.6,239.8 		"/>
		<polygon class="st0" points="990.2,232 989.9,232.5 990.3,232.8 990.4,232.6 990.5,232.2 990.5,232 		"/>
		<polygon class="st0" points="967.8,94.6 968.2,94.5 968.2,94 967.6,93.7 		"/>
		<polygon class="st0" points="1000.3,219.5 999.9,219.9 999.9,220.2 1000.3,220.2 1000.7,219.9 1000.7,219.5 		"/>
		<polygon class="st0" points="987.4,54.9 987.6,55.3 987.7,55.5 988,55.7 987.9,54.9 		"/>
		<polygon class="st0" points="993.5,73.6 994,74 993.9,73 		"/>
		<polygon class="st0" points="971.6,205.5 971.7,205.8 972.4,205.7 972.4,205.4 		"/>
		<polygon class="st0" points="976.2,56.1 976.5,56.4 976.9,56.1 976.5,55.5 		"/>
		<polygon class="st0" points="968.5,115.4 968.5,115.7 969.2,115.6 969.2,115.3 		"/>
		<polygon class="st0" points="999.1,237.5 999.6,238.1 999.9,237.5 999.8,237.5 		"/>
		<polygon class="st0" points="994.4,65.2 994.7,65.8 995,65.8 994.7,65.1 		"/>
		<polygon class="st0" points="968.5,89.6 968.9,89.9 969.2,89.8 969.5,89.7 968.8,89.4 		"/>
		<polygon class="st0" points="975.3,227.7 975.8,228 975.6,227.5 975.4,227 		"/>
		<polygon class="st0" points="975.4,54.2 975.5,54.7 975.6,54.9 975.8,54.7 975.9,54.2 		"/>
		<polygon class="st0" points="990.4,51.5 990.8,51.8 991.4,51.8 990.7,51.4 		"/>
		<polygon class="st0" points="972.4,208 972.4,207.7 972.3,206.8 		"/>
		<polygon class="st0" points="995.9,105.8 996,106.1 996.6,106.1 996.3,105.6 		"/>
		<polygon class="st0" points="974.6,222.9 975.2,223.3 975.3,223.3 975.5,223.2 975.1,222.8 		"/>
		<polygon class="st0" points="971.9,190.9 972.4,191.1 972.3,190.3 		"/>
		<polygon class="st0" points="979.8,55.4 979.9,55.7 980.2,55.8 980.6,55.4 		"/>
		<polygon class="st0" points="1000.2,201.6 1001,201.5 1000.9,201.3 1000.5,201.2 		"/>
		<polygon class="st0" points="986.7,239.8 987.3,239.8 987.1,239.4 		"/>
		<polygon class="st0" points="982.1,237.7 982.4,237.6 982.1,237 		"/>
		<polygon class="st0" points="993.9,232 994.2,232.4 994.6,232.1 994.5,231.8 		"/>
		<polygon class="st0" points="996.1,94.7 995.9,94.8 995.6,94.9 996.1,95 996.8,94.7 996.5,94.6 		"/>
		<polygon class="st0" points="990.4,52.5 990.4,52.9 990.9,52.9 990.8,52.5 		"/>
		<polygon class="st0" points="991.1,53 991.6,53.3 991.7,53.2 991.3,52.5 		"/>
		<path class="st0" d="M992.4,54.8l-0.1-1L992.4,54.8z"/>
		<polygon class="st0" points="977.7,55.4 978.2,55.7 978.1,55.1 		"/>
		<polygon class="st0" points="975.3,56.2 975.4,56.6 975.7,56.6 975.7,56.2 		"/>
		<polygon class="st0" points="970,62.1 970.1,62.5 970.6,62.4 970.5,62.1 		"/>
		<polygon class="st0" points="969.9,64.3 970.2,64.7 970.5,64.6 970.2,64.2 		"/>
		<polygon class="st0" points="995.4,85.7 995.4,86 996,86 995.9,85.6 		"/>
		<polygon class="st0" points="968.4,88.3 968.5,88.7 969,88.6 968.9,88.3 		"/>
		<polygon class="st0" points="999.4,186 999.4,186.3 999.9,186.3 999.8,185.9 		"/>
		<polygon class="st0" points="967.7,109.7 967.7,110.1 968.2,110 968.1,109.6 		"/>
		<polygon class="st0" points="972.3,215.6 972.7,216 972.9,216.2 972.8,215.6 		"/>
		<polygon class="st0" points="986.1,228.3 986.2,228.7 986.5,228.7 986.5,228.3 		"/>
		<polygon class="st0" points="976.8,234.8 977,235.3 977.1,234.6 		"/>
		<polygon class="st0" points="999.3,228.7 999.5,229 999.7,229.1 999.8,228.7 		"/>
		<path class="st0" d="M980.1,230.3h0.8H980.1z"/>
		<polygon class="st0" points="980,231.2 980.6,231.2 980.6,230.9 		"/>
		<polygon class="st0" points="999.7,231.7 1000.2,231.5 999.6,231.4 		"/>
		<polygon class="st0" points="982.8,238.7 983.5,238.6 982.8,238.3 		"/>
		<polygon class="st0" points="971.9,185.3 971.9,185.7 972.4,185.3 		"/>
		<path class="st0" d="M1000.2,221.4l0.8,0L1000.2,221.4z"/>
		<path class="st0" d="M974.9,57.3v-0.7V57.3z"/>
		<path class="st0" d="M973.9,56.1l0.8-0.1L973.9,56.1z"/>
		<polygon class="st0" points="972.2,56 972.3,56.2 972.7,56.1 972.2,55.8 		"/>
		<path class="st0" d="M986.9,53l0.8-0.1L986.9,53z"/>
		<polygon class="st0" points="989.2,52.7 989.6,52.6 989.2,52.3 		"/>
		<path class="st0" d="M967.6,119.3l-0.1-0.7L967.6,119.3z"/>
		<polygon class="st0" points="966.8,94 967.3,94.3 967.3,93.9 		"/>
		<path class="st0" d="M1000.4,194.6l-0.5-0.1L1000.4,194.6z"/>
		<path class="st0" d="M972.2,214.9h0.5H972.2z"/>
		<polygon class="st0" points="974.3,222.5 974.4,222.6 974.8,222.6 974.8,222.4 974.4,222.4 		"/>
		<polygon class="st0" points="971.7,216.3 971.8,216.5 972.1,216.5 972.1,216.3 971.8,216.3 		"/>
		<path class="st0" d="M970.4,63.4v-0.4V63.4z"/>
		<path class="st0" d="M968.9,148.9v-0.4V148.9z"/>
		<path class="st0" d="M970,60.4l0.5,0L970,60.4z"/>
		<polygon class="st0" points="983.3,59.4 983.3,59.6 983.5,59.6 983.5,59.3 983.4,59.3 		"/>
		<path class="st0" d="M983.4,235.9l-0.2-0.4L983.4,235.9z"/>
		<polygon class="st0" points="979.1,235.7 979.1,235.9 979.4,235.9 979.5,235.8 979.4,235.7 		"/>
		<path class="st0" d="M967.3,89.8v-0.4V89.8z"/>
		<path class="st0" d="M989.2,58.8l0-0.4L989.2,58.8z"/>
		<path class="st0" d="M998.3,236.9h0.5H998.3z"/>
		<path class="st0" d="M983.2,237.2l-0.5-0.1L983.2,237.2z"/>
		<path class="st0" d="M984.3,57.8l0.5-0.1L984.3,57.8z"/>
		<path class="st0" d="M972,58.2l0-0.4L972,58.2z"/>
		<polygon class="st0" points="984.1,238.3 984,238.6 984.1,238.7 984.3,238.6 984.3,238.3 		"/>
		<path class="st0" d="M989.6,239.6l-0.2-0.4L989.6,239.6z"/>
		<polygon class="st0" points="984.3,239.9 984.3,240 984.7,240 984.8,240 984.7,239.8 		"/>
		<path class="st0" d="M984.3,241.5l0.5,0L984.3,241.5z"/>
		<path class="st0" d="M975.2,224.8l0.2-0.4L975.2,224.8z"/>
		<polygon class="st0" points="987,56.3 987.1,56.4 987.4,56.4 987.4,56.2 987.1,56.2 		"/>
		<path class="st0" d="M976.3,225.6l0-0.4L976.3,225.6z"/>
		<path class="st0" d="M975,55.4l0.5,0L975,55.4z"/>
		<path class="st0" d="M984.8,55.2h0.5H984.8z"/>
		<path class="st0" d="M991.2,54.8h0.5H991.2z"/>
		<path class="st0" d="M977.8,54.9v-0.4V54.9z"/>
		<path class="st0" d="M989.2,54v-0.4V54z"/>
		<path class="st0" d="M971.6,177.7l-0.2-0.4L971.6,177.7z"/>
		<path class="st0" d="M975.5,226.5v-0.4V226.5z"/>
		<path class="st0" d="M976.3,226.5v-0.4V226.5z"/>
		<path class="st0" d="M971.9,189.4l0.5,0L971.9,189.4z"/>
		<polygon class="st0" points="970.9,76.1 971,76.2 971.3,76.2 971.3,76.1 971,76 		"/>
		<path class="st0" d="M967,93.7v-0.4V93.7z"/>
		<path class="st0" d="M976.3,227.6v-0.4V227.6z"/>
		<polygon class="st0" points="967.2,113.4 967.1,113.7 967.2,113.7 967.4,113.6 967.4,113.4 		"/>
		<polygon class="st0" points="971.9,188.6 972,188.8 972.4,188.8 972.4,188.6 972,188.6 		"/>
		<polygon class="st0" points="980.4,242.1 980.5,242.2 980.6,242.2 980.5,242 		"/>
		<polygon class="st0" points="978.8,242.3 978.8,242.4 979,242.3 978.9,242.3 		"/>
		<polygon class="st0" points="970.3,61.8 970.4,61.9 970.5,61.7 970.4,61.6 		"/>
		<polygon class="st0" points="969.3,63.7 969.4,63.8 969.5,63.7 969.4,63.6 		"/>
		<polygon class="st0" points="993.8,74.4 994,74.5 994.1,74.4 993.9,74.3 		"/>
		<polygon class="st0" points="992.8,82.7 992.8,82.8 993,82.7 992.9,82.6 		"/>
		<path class="st0" d="M996.2,83.4l-0.3-0.2L996.2,83.4z"/>
		<polygon class="st0" points="968.5,87.9 968.6,88 968.7,87.9 968.6,87.9 		"/>
		<path class="st0" d="M995.5,88.7l0.2-0.2L995.5,88.7z"/>
		<polygon class="st0" points="994.6,93.2 994.7,93.2 994.9,93.2 994.8,93.1 		"/>
		<polygon class="st0" points="969.3,94.1 969.4,94.1 969.5,94 969.4,93.9 		"/>
		<polygon class="st0" points="967.1,98.2 967.2,98.2 967.4,98.2 967.3,98.1 		"/>
		<polygon class="st0" points="995.7,98.1 995.8,98.3 995.9,98.2 995.8,98.1 		"/>
		<polygon class="st0" points="967.1,98.8 967.3,98.9 967.4,98.8 967.2,98.8 		"/>
		<path class="st0" d="M966.7,100l0.2-0.2L966.7,100z"/>
		<polygon class="st0" points="967.2,109.8 967.3,109.8 967.4,109.7 967.3,109.6 		"/>
		<polygon class="st0" points="996.8,114.5 996.8,114.6 996.9,114.6 996.8,114.4 		"/>
		<polygon class="st0" points="967.1,116.3 967.2,116.3 967.4,116.3 967.3,116.2 		"/>
		<polygon class="st0" points="966.7,117.1 966.7,117.3 966.8,117.2 966.7,117 		"/>
		<polygon class="st0" points="968.5,118.7 968.6,118.8 968.7,118.6 968.6,118.6 		"/>
		<polygon class="st0" points="966.9,123.9 967,124 967.1,123.9 967.1,123.8 		"/>
		<polygon class="st0" points="996.8,124.3 996.8,124.5 996.9,124.4 996.8,124.2 		"/>
		<path class="st0" d="M969.1,136.9l0.2-0.2L969.1,136.9z"/>
		<polygon class="st0" points="997.8,142.2 997.9,142.3 998,142.2 997.9,142.1 		"/>
		<polygon class="st0" points="968.8,147.5 968.9,147.6 968.9,147.4 968.9,147.4 		"/>
		<polygon class="st0" points="970.1,159.1 970.2,159.1 970.3,159 970.2,158.9 		"/>
		<path class="st0" d="M970.6,161.6l-0.3-0.2L970.6,161.6z"/>
		<polygon class="st0" points="999.7,174 999.7,174.2 999.8,174.1 999.7,174 		"/>
		<path class="st0" d="M1000.4,186.2l-0.3-0.2L1000.4,186.2z"/>
		<path class="st0" d="M1000.1,195.1l0.2-0.2L1000.1,195.1z"/>
		<polygon class="st0" points="999.9,209 1000,209 1000.1,209 1000.1,208.9 		"/>
		<polygon class="st0" points="1000.2,212.7 1000.3,212.8 1000.4,212.6 1000.3,212.6 		"/>
		<path class="st0" d="M998.5,217.6l0.2-0.2L998.5,217.6z"/>
		<polygon class="st0" points="987.9,50.3 987.8,50.4 987.9,50.5 988,50.4 		"/>
		<path class="st0" d="M977.9,222.4l0.2-0.2L977.9,222.4z"/>
		<polygon class="st0" points="991.2,51.1 991.3,51.1 991.4,51.1 991.3,51 		"/>
		<polygon class="st0" points="975.1,222.5 975.2,222.6 975.3,222.5 975.2,222.4 		"/>
		<path class="st0" d="M977.8,222.6l0.2-0.2L977.8,222.6z"/>
		<polygon class="st0" points="989.1,51.3 989.1,51.3 989.3,51.3 989.2,51.2 		"/>
		<polygon class="st0" points="993.3,51.3 993.4,51.3 993.5,51.3 993.5,51.2 		"/>
		<polygon class="st0" points="989.1,51.9 989.2,52 989.3,52 989.2,51.8 		"/>
		<path class="st0" d="M991.7,52l-0.3-0.2L991.7,52z"/>
		<polygon class="st0" points="985.1,52.6 985.3,52.7 985.4,52.6 985.2,52.5 		"/>
		<polygon class="st0" points="992.3,53 992.4,53.1 992.4,53.1 992.4,52.9 		"/>
		<polygon class="st0" points="992.3,53.4 992.4,53.6 992.4,53.5 992.4,53.3 		"/>
		<polygon class="st0" points="993.3,53.5 993.4,53.5 993.5,53.5 993.5,53.4 		"/>
		<polygon class="st0" points="972.2,54.1 972.3,54.2 972.4,54.1 972.3,54 		"/>
		<path class="st0" d="M975.8,54.2L976,54L975.8,54.2z"/>
		<polygon class="st0" points="974.3,54.5 974.4,54.6 974.5,54.5 974.4,54.5 		"/>
		<polygon class="st0" points="973.8,54.8 973.9,54.9 974,54.7 973.9,54.7 		"/>
		<polygon class="st0" points="986.2,54.8 986.3,54.8 986.4,54.8 986.2,54.7 		"/>
		<polygon class="st0" points="987,54.8 987.1,54.9 987.2,54.7 987.1,54.7 		"/>
		<path class="st0" d="M975.4,55.1l0.2-0.2L975.4,55.1z"/>
		<polygon class="st0" points="977.2,55 977.3,55.1 977.4,55 977.3,54.9 		"/>
		<polygon class="st0" points="979.3,55.2 979.4,55.3 979.6,55.2 979.5,55.1 		"/>
		<polygon class="st0" points="998.8,228.8 999,228.9 999.1,228.8 998.9,228.7 		"/>
		<polygon class="st0" points="984.4,55.9 984.4,56 984.5,55.8 984.4,55.7 		"/>
		<polygon class="st0" points="991,56.1 991,56.2 991.1,56 991,56 		"/>
		<polygon class="st0" points="992.3,56.1 992.4,56.2 992.4,56 992.4,56 		"/>
		<polygon class="st0" points="972.2,56.8 972.3,56.8 972.4,56.7 972.3,56.6 		"/>
		<path class="st0" d="M987.6,57l0.2-0.2L987.6,57z"/>
		<path class="st0" d="M994,57.1l0.2-0.2L994,57.1z"/>
		<polygon class="st0" points="977.5,231 977.6,231.1 977.7,231 977.6,230.9 		"/>
		<polygon class="st0" points="990.4,57.1 990.5,57.3 990.6,57.2 990.5,57.1 		"/>
		<polygon class="st0" points="980.9,231 981,231.1 981.1,231 981,230.9 		"/>
		<polygon class="st0" points="991.5,57.4 991.6,57.5 991.7,57.4 991.6,57.3 		"/>
		<path class="st0" d="M981.3,57.7l0.2-0.2L981.3,57.7z"/>
		<path class="st0" d="M984.8,57.7l0.3-0.2L984.8,57.7z"/>
		<polygon class="st0" points="988.6,231.7 988.7,231.8 988.7,231.6 988.7,231.5 		"/>
		<polygon class="st0" points="994.6,233 994.7,233 994.9,233 994.8,232.9 		"/>
		<polygon class="st0" points="995.7,233.8 995.8,233.9 995.9,233.9 995.8,233.7 		"/>
		<polygon class="st0" points="999.1,233.8 999.2,233.9 999.3,233.9 999.2,233.7 		"/>
		<polygon class="st0" points="983.5,234.1 983.7,234.1 983.8,234.1 983.6,234 		"/>
		<polygon class="st0" points="996.8,234.3 996.8,234.4 996.9,234.2 996.8,234.2 		"/>
		<polygon class="st0" points="996.2,234.7 996.3,234.8 996.4,234.7 996.3,234.6 		"/>
		<polygon class="st0" points="990.1,234.9 990.2,235 990.4,234.9 990.3,234.8 		"/>
		<polygon class="st0" points="993.8,234.9 994,235 994.1,234.9 993.9,234.8 		"/>
		<path class="st0" d="M985.4,58.4l-0.3-0.2L985.4,58.4z"/>
		<polygon class="st0" points="985.4,235.8 985.5,235.9 985.6,235.8 985.5,235.7 		"/>
		<polygon class="st0" points="993.9,236 993.9,236.1 994,236.1 993.9,235.9 		"/>
		<polygon class="st0" points="983.5,236.2 983.6,236.3 983.8,236.2 983.7,236.2 		"/>
		<polygon class="st0" points="982.8,59.4 982.9,59.5 982.9,59.3 982.9,59.2 		"/>
		<polygon class="st0" points="978,237.3 978.1,237.4 978.2,237.3 978.1,237.2 		"/>
		<polygon class="st0" points="981.2,237.3 981.3,237.4 981.4,237.4 981.3,237.2 		"/>
		<polygon class="st0" points="977.2,237.6 977.3,237.7 977.4,237.5 977.3,237.4 		"/>
		<polygon class="st0" points="978.5,237.5 978.6,237.6 978.7,237.6 978.6,237.4 		"/>
		<polygon class="st0" points="978,238.2 978.1,238.3 978.2,238.2 978.1,238.1 		"/>
		<polygon class="st0" points="972.4,59.8 972.5,59.9 972.7,59.8 972.6,59.7 		"/>
		<polygon class="st0" points="982.2,238.6 982.3,238.7 982.5,238.6 982.4,238.6 		"/>
		<polygon class="st0" points="978.5,238.8 978.6,239 978.7,238.9 978.6,238.7 		"/>
		<polygon class="st0" points="989.4,238.9 989.5,239 989.5,238.8 989.5,238.7 		"/>
		<polygon class="st0" points="984.6,239.1 984.7,239.1 984.8,239.1 984.7,239 		"/>
		<polygon class="st0" points="985.6,239.3 985.7,239.4 985.9,239.3 985.8,239.2 		"/>
		<polygon class="st0" points="988.8,239.3 988.9,239.4 989.1,239.3 989,239.2 		"/>
		<polygon class="st0" points="972.4,60.2 972.5,60.3 972.7,60.2 972.6,60.2 		"/>
		<polygon class="st0" points="989.6,239.8 989.8,239.8 989.6,239.6 		"/>
		<path class="st0" d="M980.4,240.3l-0.3-0.2L980.4,240.3z"/>
		<path class="st0" d="M980.6,240.4l-0.3-0.2L980.6,240.4z"/>
		<polygon class="st0" points="981.2,240.3 981.3,240.5 981.4,240.4 981.3,240.3 		"/>
		<polygon class="st0" points="987.8,240.3 987.9,240.5 988,240.4 987.9,240.3 		"/>
		<polygon class="st0" points="991.2,240.6 991.3,240.7 991.4,240.6 991.3,240.5 		"/>
		<polygon class="st0" points="993.5,240.6 993.7,240.7 993.8,240.6 993.6,240.5 		"/>
		<polygon class="st0" points="980.1,240.8 980.2,240.9 980.3,240.8 980.2,240.7 		"/>
		<polygon class="st0" points="979.6,241.4 979.7,241.6 979.8,241.5 979.7,241.4 		"/>
		<polygon class="st0" points="990.1,224.2 990.1,224.8 990.7,224.4 990.5,224.1 		"/>
		<path class="st0" d="M988.3,223.8h0.5H988.3z"/>
		<polygon class="st0" points="995.1,119.1 995.2,119.2 995.4,119.1 995.3,119 		"/>
		<path class="st0" d="M971.4,79.2l0.5-0.1L971.4,79.2z"/>
	</g>
</g>
<g>
	<path class="st0" d="M194.6,214c0-0.1,0-0.2,0-0.2c0-0.1,0-0.2-0.1-0.2c0-0.1-0.1-0.2-0.1-0.3c0-0.1,0-0.1-0.1-0.2c0,0,0,0,0-0.1
		c0,0,0,0,0,0c-4.1-7.6-10.2-12.7-16.6-15.9c3.3-9.6,5.4-20.7,5.4-29.5c0-14.1-3.5-27.8-10.3-40.1c2.3,0.6,4.3,1.1,5.8,1.4
		c1.7,0.4,3.1,0.8,4,1l0.1,0c0.3,0.1,1,0.2,1.8,0.2c1.3,0,2.9-0.3,4-1.4c1-0.9,1.3-2.3,1.1-3.7c-1.1-6-3.7-13.5-9.3-15
		c-6.4-1.7-11.9-7.5-17.2-13c-0.7-0.7-1.4-1.5-2.1-2.2l-0.2-0.3c-3.2-3.5-6.9-7.5-11-11.2c0.4-15,10.7-22.1,11.2-22.4c0,0,0,0,0.1,0
		c0.1,0,0.1-0.1,0.1-0.1c0,0,0.1-0.1,0.1-0.1c0,0,0.1-0.1,0.1-0.1c0,0,0.1-0.1,0.1-0.1c0,0,0.1-0.1,0.1-0.1c0,0,0-0.1,0.1-0.1
		c0-0.1,0-0.1,0-0.2c0,0,0-0.1,0-0.2c0-0.1,0-0.1,0-0.2c0-0.1,0-0.1,0-0.2c0,0,0-0.1,0-0.1c0,0,0-0.1,0-0.1c0-0.1,0-0.1,0-0.2
		c0,0,0-0.1,0-0.1c0-0.1,0-0.1-0.1-0.2c0,0,0-0.1-0.1-0.1c0,0,0-0.1,0-0.1c0,0,0,0-0.1-0.1c0,0-0.1-0.1-0.1-0.1
		c0-0.1-0.1-0.1-0.1-0.1c0,0-0.1,0-0.1-0.1c-0.1,0-0.1-0.1-0.2-0.1c0,0-0.1,0-0.1-0.1c-0.1,0-0.1-0.1-0.2-0.1c0,0-0.1,0-0.1,0
		c-0.1,0-0.1,0-0.2,0c-0.1,0-0.1,0-0.2,0c-0.1,0-0.1,0-0.2,0c0,0-0.1,0-0.1,0c-13.4,1.2-19.7,11.7-22.2,17.4c-2-0.8-4-1.5-6.2-1.9
		c0.4-8.8,6.4-16.4,13.2-20.7c0,0,0,0,0.1-0.1c0,0,0.1-0.1,0.1-0.1c0,0,0.1-0.1,0.1-0.1c0,0,0.1-0.1,0.1-0.1c0,0,0.1-0.1,0.1-0.1
		c0,0,0.1-0.1,0.1-0.1c0,0,0-0.1,0.1-0.1c0,0,0-0.1,0-0.2c0-0.1,0-0.1,0-0.2c0-0.1,0-0.1,0-0.2c0-0.1,0-0.1,0-0.2c0,0,0-0.1,0-0.1
		c0,0,0,0,0-0.1c0-0.1,0-0.1,0-0.2c0-0.1,0-0.1,0-0.2c0,0,0-0.1-0.1-0.1c0-0.1-0.1-0.1-0.1-0.2c0,0,0,0,0,0c0,0,0,0-0.1-0.1
		c0,0-0.1-0.1-0.1-0.1c0,0-0.1-0.1-0.1-0.1c0,0-0.1-0.1-0.1-0.1c0,0-0.1-0.1-0.1-0.1c0,0-0.1-0.1-0.1-0.1c0,0-0.1,0-0.1-0.1
		c-0.1,0-0.1,0-0.2,0c-0.1,0-0.1,0-0.2,0c0,0-0.1,0-0.2,0c-0.1,0-0.1,0-0.2,0c0,0-0.1,0-0.1,0c-0.7,0.1-17.2,1.8-23.7,15.6
		c-0.7,1.4-1.2,2.8-1.6,4.1l-8.5-7.6l0,0c0,0-0.1,0-0.1-0.1c-0.1-0.1-0.2-0.1-0.2-0.2c-0.1,0-0.1-0.1-0.2-0.1
		c-0.1,0-0.1-0.1-0.2-0.1c-0.1,0-0.2-0.1-0.3-0.1c0,0-0.1,0-0.1,0l0,0c-0.7-0.1-1.5,0.1-2,0.7c-0.1,0.1-0.1,0.1-0.2,0.2
		c0,0-0.1,0.1-0.1,0.1c0,0.1-0.1,0.2-0.1,0.2c0,0.1-0.1,0.1-0.1,0.2c0,0.1-0.1,0.2-0.1,0.3c0,0,0,0.1,0,0.1l-2.3,14.8l-0.5,0.2
		l-12.5-8.4c0,0-0.1,0-0.1-0.1c-0.1,0-0.2-0.1-0.3-0.1c-0.1,0-0.1,0-0.2-0.1c-0.1,0-0.2-0.1-0.2-0.1c-0.1,0-0.1,0-0.2,0
		c-0.1,0-0.1,0-0.2,0c-0.1,0-0.2,0-0.2,0c-0.1,0-0.1,0-0.2,0c0,0,0,0,0,0c-0.1,0-0.2,0-0.2,0.1c-0.1,0-0.1,0-0.2,0.1
		c-0.1,0-0.1,0.1-0.2,0.1c-0.1,0-0.1,0.1-0.2,0.1c-0.1,0-0.1,0.1-0.2,0.1c-0.1,0-0.1,0.1-0.2,0.1c0,0-0.1,0.1-0.1,0.1
		c-0.1,0.1-0.1,0.1-0.2,0.2c0,0,0,0,0,0c0,0,0,0.1-0.1,0.1c0,0.1-0.1,0.1-0.1,0.2c0,0.1,0,0.1-0.1,0.2c0,0.1-0.1,0.1-0.1,0.2
		c0,0.1,0,0.1,0,0.2c0,0.1,0,0.1,0,0.2c0,0.1,0,0.2,0,0.2c0,0,0,0.1,0,0.1l2.3,15.5l-0.4,0.4l-14.2-4c0,0-0.1,0-0.1,0
		c-0.1,0-0.2,0-0.3,0c-0.1,0-0.1,0-0.2,0c-0.1,0-0.1,0-0.2,0c-0.1,0-0.2,0-0.2,0c-0.1,0-0.1,0-0.2,0c-0.1,0-0.2,0.1-0.3,0.1
		c0,0-0.1,0-0.1,0.1c0,0,0,0,0,0c-0.1,0-0.2,0.1-0.3,0.2c0,0-0.1,0.1-0.1,0.1c-0.1,0.1-0.1,0.1-0.2,0.2c0,0-0.1,0.1-0.1,0.1
		c0,0-0.1,0.1-0.1,0.1c-0.1,0.1-0.1,0.2-0.2,0.2c0,0,0,0.1,0,0.1c0,0.1-0.1,0.2-0.1,0.3c0,0,0,0,0,0c0,0,0,0.1,0,0.1
		c0,0.1,0,0.2,0,0.3c0,0.1,0,0.1,0,0.2c0,0.1,0,0.1,0,0.2c0,0.1,0,0.2,0,0.2c0,0.1,0,0.1,0,0.2c0,0.1,0.1,0.2,0.1,0.3
		c0,0,0,0.1,0.1,0.1l0.8,1.5c-17,5.2-32.3,15.9-43.1,30c-11.1,14.7-17,32.1-17,50.5c0,23,8.8,44.3,24.1,58.7c0,0,0.1,0.1,0.1,0.1
		c0.2,0.2,0.5,0.4,0.7,0.7c0.2,0.2,0.5,0.5,0.8,0.7c0,0,0.1,0,0.1,0.1C49,238.1,62.1,243,75.8,243c19.9,0,34.6-12,45.1-22.4
		c22.5-22.3,32.2-22.3,39.4-22.3c6.6,0,15.1,2.3,21.9,8c-13.3-4.2-24.3,1-24.8,1.3c0,0,0,0-0.1,0c0,0-0.1,0-0.1,0.1
		c-0.1,0.1-0.2,0.1-0.3,0.2c0,0-0.1,0.1-0.1,0.1c-0.1,0.1-0.2,0.2-0.3,0.3c0,0-0.1,0.1-0.1,0.2c-0.1,0.1-0.1,0.2-0.2,0.2
		c0,0.1-0.1,0.1-0.1,0.2c0,0.1-0.1,0.2-0.1,0.2c0,0.1,0,0.1,0,0.2c0,0.1,0,0.2-0.1,0.3c0,0,0,0,0,0c0,0.1,0,0.1,0,0.2
		c0,0.1,0,0.2,0,0.3c0,0.1,0,0.2,0,0.3c0,0.1,0,0.2,0.1,0.2c0,0.1,0.1,0.2,0.1,0.3c0,0,0,0.1,0.1,0.1c0,0,0,0,0,0
		c0.1,0.1,0.1,0.2,0.2,0.3c0,0.1,0.1,0.1,0.1,0.2c0.1,0.1,0.1,0.2,0.2,0.2c0,0,0.1,0.1,0.1,0.1c0.1,0.1,0.2,0.1,0.3,0.2
		c0.1,0,0.1,0.1,0.2,0.1c0.1,0,0.2,0.1,0.3,0.1c0.1,0,0.1,0.1,0.2,0.1c0.1,0,0.2,0,0.3,0.1c0.1,0,0.2,0,0.3,0c0,0,0,0,0.1,0
		c1.5,0.1,5,0.9,6.1,2.4c0.2,0.3,0.4,0.7,0.2,1.6c-0.6,0.9-5.2,1.4-7.8,1.6c-5.9,0.6-12.6,1.3-15.7,5.8c-1.7,2.6-2,5.9-0.7,10
		c0.3,1.1,1.4,1.8,2.5,1.8c0.3,0,0.5,0,0.8-0.1c1.4-0.4,2.2-1.9,1.7-3.2c-0.8-2.5-0.8-4.4,0-5.6c1.7-2.5,7.3-3.1,11.8-3.5
		c5.7-0.6,11.2-1.1,12.3-5.5c0.6-2.1,0.2-4.2-1-5.8c-0.5-0.7-1.1-1.2-1.7-1.7c5.9-0.9,14.7-0.5,23.5,6.2c0.1,0.1,0.2,0.1,0.3,0.2
		c0,0,0,0,0.1,0c0.1,0.1,0.3,0.1,0.4,0.2c0,0,0.1,0,0.1,0c0.1,0,0.2,0.1,0.3,0.1c0.1,0,0.1,0,0.2,0c0.1,0,0.1,0,0.2,0
		c0,0,0.1,0,0.1,0c0.1,0,0.2,0,0.4,0c0.1,0,0.1,0,0.2,0c0.1,0,0.2-0.1,0.4-0.1c0.1,0,0.1,0,0.2-0.1c0,0,0,0,0,0
		c0.1-0.1,0.2-0.1,0.4-0.2c0,0,0.1,0,0.1-0.1c0.2-0.1,0.3-0.3,0.4-0.4c0,0,0,0,0,0c0,0,0.1-0.1,0.1-0.1c0.1-0.1,0.1-0.2,0.2-0.3
		c0-0.1,0.1-0.1,0.1-0.2c0-0.1,0.1-0.2,0.1-0.2c0-0.1,0-0.2,0.1-0.2c0-0.1,0-0.2,0-0.3c0-0.1,0-0.2,0-0.2
		C194.6,214.2,194.6,214.1,194.6,214 M154.3,62.6c-3.2,3.6-6.9,9.6-7.8,18.2c-1.9-1.4-3.9-2.8-5.9-3.9
		C142.4,72.7,146.4,65.6,154.3,62.6 M122.9,66.7c3.1-6.7,9.2-10.1,14-11.9c-6.4,6.5-10.7,15.9-8,26c0,0,0,0,0,0c0,0,0,0,0,0.1
		c0.6,1.9-0.5,4-2.4,4.7c-2,0.6-4.1-0.5-4.7-2.4l-0.1-0.3C121.5,82.6,118.3,76.5,122.9,66.7 M74.8,93.4c0.3-0.1,0.5-0.2,0.8-0.4
		l3.6,6.6l-0.3,0.4l-13.6,1.7c0,0-0.1,0-0.1,0c-0.1,0-0.2,0-0.2,0.1c-0.1,0-0.1,0-0.2,0.1c-0.1,0-0.1,0.1-0.2,0.1
		c-0.1,0-0.1,0.1-0.2,0.1c-0.1,0-0.1,0.1-0.2,0.1c-0.1,0.1-0.1,0.1-0.2,0.2c0,0,0,0-0.1,0c0,0,0,0.1-0.1,0.1
		c-0.1,0.1-0.1,0.1-0.2,0.2c0,0.1-0.1,0.1-0.1,0.2c0,0.1-0.1,0.1-0.1,0.2c0,0.1-0.1,0.1-0.1,0.2c0,0.1,0,0.1-0.1,0.2
		c0,0.1,0,0.1,0,0.2c0,0.1,0,0.1,0,0.2c0,0.1,0,0.2,0,0.2c0,0,0,0.1,0,0.1c0,0,0,0.1,0,0.1c0,0.1,0,0.1,0,0.2c0,0.1,0,0.2,0.1,0.2
		c0,0.1,0,0.1,0.1,0.2c0,0.1,0.1,0.1,0.1,0.2c0,0,0.1,0.1,0.1,0.1c0.1,0.1,0.1,0.1,0.2,0.2c0,0,0,0.1,0.1,0.1l8.5,8.2l-0.1,0.4
		l-9.7,3.9c0,0-0.1,0-0.1,0.1c-0.1,0-0.2,0.1-0.3,0.1c-0.1,0-0.1,0.1-0.2,0.1l-24-1.6C48,105.9,60.7,97.7,74.8,93.4 M18.3,169
		c0-17.2,5.5-33.6,16-47.4c0.1-0.2,0.2-0.3,0.4-0.5c4.3,36.8-7.8,61.7-13.1,70.6C19.4,184.5,18.3,176.9,18.3,169 M37.8,120l24.1,1.6
		c0.1,0.1,0.2,0.2,0.4,0.3l0,0l0,0l7.7,5.2L70,128l-5.7,5c0,0,0,0,0,0l0,0c0,0,0,0-0.1,0.1c-0.1,0.1-0.2,0.2-0.2,0.3l0,0
		c-0.1,0.1-0.2,0.2-0.2,0.4c0,0.1-0.1,0.2-0.1,0.3c0,0,0,0.1-0.1,0.1c0,0.1,0,0.2-0.1,0.3c0,0,0,0.1,0,0.1c0,0.1,0,0.2,0,0.3
		c0,0.1,0,0.1,0,0.2c0,0.1,0,0.2,0.1,0.3c0,0.1,0,0.1,0,0.2c0.1,0.3,0.2,0.5,0.4,0.8l0,0c0.1,0.1,0.2,0.2,0.3,0.3l6,4.5
		c0.1,0.8,1,6.5,3.8,13.3c0.1,8.4-0.7,32.2-11.5,50.8c-20-1.9-34.4-7.4-39.5-9.6C28.1,187.9,42.9,161.5,37.8,120 M78.5,192.3
		c0,0,0,0.1,0,0.1c0,0,0,0,0,0c0,0.1-0.1,0.2-0.1,0.4c0,0.2,0,0.4,0,0.6c0.2,1.4,1.5,2.4,2.9,2.2c6.1-0.8,11.6,3,13.1,8.8
		c-10.1,1.3-19.6,1.4-28.2,0.8c8.5-15.5,10.7-33.6,11.1-44.5c1,1.7,2.2,3.4,3.5,5.1c5.2,6.3,10,10,13.8,12.9c1,0.8,2,1.5,2.8,2.2
		c-3.5-0.2-7.7,0.1-11.4,2C82.4,184.7,79.9,187.9,78.5,192.3 M94.9,207.7c-0.2,3.6-2.5,6.4-4,7.9c-3.5,3.5-9.9,5.6-16.9,5.6
		c-15.1,0-23.4-8.9-27.4-15.4c5,1,10.5,1.9,16.5,2.4c0.2,0,0.3,0.1,0.5,0.1c0,0,0.1,0,0.1,0c4.1,0.4,8.4,0.6,13,0.6
		C82.4,208.9,88.6,208.5,94.9,207.7 M136.6,200.4c-0.8-11.6-10.4-21.8-20.5-32.5c-11.5-12.2-23.3-24.8-23.2-40.4c0,0,0,0,0,0v0
		c0-15.5,12-28.4,27.4-30c2.4,4.5,6.1,10,9.7,11.9l0.2,0.1l0.2,0c0.1,0,1.6,0.3,3.9,0.3c3.2,0,8-0.6,13-3.4c0.3-0.2,0.5-0.4,0.7-0.7
		c0.4-0.7,0.3-1.5-0.3-2.1c-7-6.4-15-9.7-24-9.7c-18.8,0-34.1,15-34.1,33.5v0c-0.1,16.9,12.2,30,24.1,42.7
		c10.3,10.9,20,21.2,19.6,32.5c-4.7,3.4-10,8-16.2,14.2c-9.8,9.7-23.3,20.9-41.3,20.9c-12.6,0-24.5-4.5-33.8-12.8
		c-7.8-7-13.8-15.8-17.9-25.8c3.4,1.4,8.8,3.3,15.8,5c6.5,13.9,19.3,22.1,34.2,22.1c8.5,0,16-2.6,20.6-7.1c4.1-4.1,6.1-9,5.5-13.8
		c-1-7.9-7.4-13.9-15-14.9c0.9-1.4,2.1-2.4,3.5-3.2c6-3.1,14.6-0.3,14.7-0.3c1.4,0.4,2.9-0.3,3.3-1.6c0.1-0.3,0.2-0.7,0.1-1
		c0-0.4-0.1-0.8-0.3-1.2c-1.7-3.5-4.9-5.9-8.5-8.7c-3.6-2.8-8.2-6.2-12.9-12c-7.6-9.3-9.5-22.3-9.6-22.4c-0.1-0.8-0.6-1.5-1.3-1.9
		l-4.9-3.7l4.4-3.8c0,0,0,0,0,0c0.1-0.1,0.1-0.1,0.2-0.2c0,0,0.1-0.1,0.1-0.1c0.1-0.1,0.1-0.2,0.2-0.3c0,0,0-0.1,0.1-0.1
		c0.1-0.1,0.1-0.2,0.1-0.4c0,0,0,0,0,0c0,0,0-0.1,0-0.1c0-0.1,0-0.2,0-0.3v0l0.2-2.9c0.1-0.8-0.2-1.7-1-2.1l-5.3-3.6l6.8-2.7
		c0,0,0,0,0.1,0c0.1,0,0.2-0.1,0.3-0.1c0,0,0.1,0,0.1-0.1c0.1-0.1,0.2-0.2,0.3-0.3c0,0,0,0,0,0c0.1-0.1,0.2-0.2,0.2-0.3
		c0,0,0-0.1,0.1-0.1c0-0.1,0.1-0.2,0.1-0.2c0,0,0-0.1,0.1-0.1c0,0,0-0.1,0-0.1l0.9-2.9c0.3-1.1-0.2-2.2-1.2-2.7l-5.6-5.4l9.1-1.1
		c0.2,0,0.3,0.1,0.5,0.1c0.8,0,1.5-0.4,1.9-1.1l1.6-2.6c0,0,0,0,0-0.1c0-0.1,0.1-0.1,0.1-0.2c0-0.1,0.1-0.1,0.1-0.2
		c0-0.1,0-0.1,0.1-0.2c0-0.1,0-0.1,0-0.2c0-0.1,0-0.1,0-0.2c0-0.1,0-0.1,0-0.2c0-0.1,0-0.1,0-0.2c0-0.1,0-0.1,0-0.2
		c0-0.1,0-0.1-0.1-0.2c0-0.1-0.1-0.2-0.1-0.2c0,0,0,0,0-0.1l-4.9-9.1L89,92.4c0,0,0,0,0.1,0c0.2,0,0.4,0.1,0.5,0.1c0,0,0,0,0,0
		c0.1,0,0.3,0,0.4,0c0,0,0.1,0,0.1,0c0.1,0,0.2,0,0.3-0.1c0,0,0.1,0,0.1-0.1c0.1,0,0.1-0.1,0.2-0.1c0,0,0.1-0.1,0.1-0.1
		c0.1,0,0.1-0.1,0.2-0.1c0,0,0,0,0.1-0.1l2.3-2c0,0,0,0,0,0c0.1-0.1,0.2-0.2,0.3-0.3c0-0.1,0.1-0.1,0.1-0.2c0-0.1,0.1-0.1,0.1-0.2
		c0-0.1,0-0.1,0.1-0.2c0-0.1,0.1-0.1,0.1-0.2c0-0.1,0-0.1,0-0.2c0-0.1,0-0.1,0-0.2c0-0.1,0-0.3,0-0.4v0l-1.7-11.6l9.3,6.3
		c0,0,0,0,0,0c0.1,0.1,0.3,0.1,0.4,0.2c0.1,0,0.1,0.1,0.2,0.1c0.2,0.1,0.4,0.1,0.6,0.1h0h0c0.2,0,0.3,0,0.5-0.1c0.1,0,0.1,0,0.2-0.1
		c0.1,0,0.2-0.1,0.3-0.1l2.7-1.3c0.8-0.4,1.2-1.1,1.3-1.9l1.8-11.6l7,6.3c0.1,0.1,0.3,0.2,0.4,0.3c-0.6,5.5,1,9.1,1.4,9.9
		c1,2.9,3.8,4.7,6.7,4.7c0.7,0,1.4-0.1,2.2-0.3c3.7-1.2,5.7-5.1,4.6-8.7c0,0,0,0,0,0c-0.1-0.3-0.2-0.7-0.3-1
		c9.8,2.4,18.1,11.5,25,19l0.3,0.3l0,0c0,0,0,0,0.1,0.1c0.7,0.7,1.4,1.5,2.1,2.2c5.8,6.1,11.8,12.3,19.7,14.5
		c2.1,0.6,4.1,4.4,5.3,9.9c-0.2,0-0.4,0-0.5-0.1c-0.9-0.2-2.2-0.6-3.9-1c-17.2-4.4-34-8.1-41-6.3c0,0-0.1,0-0.1,0
		c-0.1,0-0.2,0.1-0.3,0.1c-0.1,0-0.2,0.1-0.2,0.1c-0.1,0-0.1,0.1-0.2,0.1c-0.1,0.1-0.2,0.1-0.2,0.2c0,0-0.1,0-0.1,0.1
		c0,0,0,0.1-0.1,0.1c-0.1,0.1-0.1,0.1-0.2,0.2c0,0.1-0.1,0.1-0.1,0.2c0,0.1-0.1,0.2-0.1,0.2c0,0.1-0.1,0.1-0.1,0.2
		c0,0.1-0.1,0.2-0.1,0.2c0,0.1,0,0.2-0.1,0.2c0,0.1,0,0.2,0,0.3c0,0.1,0,0.2,0,0.2c0,0.1,0,0.2,0,0.3c0,0.1,0,0.2,0,0.3
		c0,0,0,0.1,0,0.1c0,0,0,0.1,0,0.1c0,0.1,0.1,0.2,0.1,0.2c0,0.1,0.1,0.2,0.1,0.2c0,0.1,0.1,0.1,0.1,0.2c0.1,0.1,0.1,0.2,0.2,0.2
		c0,0,0,0.1,0.1,0.1l26,26.3l-9.3,0.5c-2.9-5.6-5.5-7.9-12.1-10.9c-2.7-1.2-7.3-2.5-11.8-3.8l-2.4-0.7c-5.1-1.5-9.6-8.4-9.6-14.8
		c0-1.9,0.4-3.7,1.2-5.4c0.1-0.2,0.2-0.5,0.2-0.7c0.1-0.2,0.2-0.5,0.4-0.7c0.7-1.3,0.2-2.8-1-3.5c-1.3-0.7-2.9-0.2-3.6,1
		c-8.7,15.5-6.1,34.5,6.4,47.2c5.1,5.2,10.5,9.3,15.7,13.3c9.3,7,17.3,13.2,21.5,23.3C153.8,193,147.1,193.5,136.6,200.4 M124,97.3
		c7.2,0.1,13.8,2.5,19.7,7.3c-5.9,2.6-11.2,2-12.3,1.8C129,105,126.2,101.1,124,97.3 M127.3,154.5c-0.6-0.5-1.1-1.1-1.7-1.7
		c-6.6-6.7-10-15.4-10-24.3c2.3,4.5,6,8.3,10.8,9.7l0.9,0.3L127.3,154.5z M164.7,193.3c-4.4-12.7-13.9-20-24-27.7
		c-3.4-2.6-6.8-5.2-10.1-8.1l0-18.1c3.6,1,7.3,2.1,9.3,3c6.1,2.8,7.7,4.4,10.4,10l0,0c0.1,0.2,0.2,0.4,0.4,0.6c0,0,0.1,0.1,0.1,0.1
		c0.2,0.2,0.3,0.3,0.5,0.4c0,0,0,0,0,0c0.2,0.1,0.4,0.2,0.5,0.2c0.1,0,0.1,0,0.2,0c0.2,0.1,0.4,0.1,0.6,0.1h0c0,0,0,0,0,0
		c0,0,0.1,0,0.1,0l16.8-0.9c0.1,0,0.1,0,0.2,0c0.1,0,0.2,0,0.3,0c0.1,0,0.2,0,0.3-0.1c0.1,0,0.2-0.1,0.2-0.1c0.1,0,0.2-0.1,0.2-0.1
		c0.1,0,0.1-0.1,0.2-0.1c0.1-0.1,0.2-0.1,0.2-0.2c0,0,0.1-0.1,0.1-0.1c0,0,0,0,0.1-0.1c0.1-0.1,0.1-0.2,0.2-0.2
		c0-0.1,0.1-0.1,0.1-0.2c0-0.1,0.1-0.2,0.1-0.2c0-0.1,0.1-0.1,0.1-0.2c0-0.1,0.1-0.2,0.1-0.3c0-0.1,0-0.2,0.1-0.2c0-0.1,0-0.2,0-0.2
		c0-0.1,0-0.2,0-0.3c0,0,0-0.1,0-0.1c0-0.1,0-0.1,0-0.1c0-0.1,0-0.2,0-0.3c0-0.1,0-0.1-0.1-0.2c0-0.1-0.1-0.2-0.1-0.3
		c0-0.1-0.1-0.1-0.1-0.2c-0.1-0.1-0.1-0.2-0.2-0.3c0-0.1-0.1-0.1-0.1-0.1c0-0.1-0.1-0.1-0.1-0.2l-26-26.3c5.5,0.3,13.3,1.8,20.3,3.4
		c7.9,12.5,12.1,26.9,12.1,41.8c0,8.2-1.9,18.5-5,27.5C170,194.2,167.3,193.6,164.7,193.3"/>
	<path class="st0" d="M237.1,137.4c0-1.5-0.5-1.5-1-0.7c-1.6,2.7-2.9,4.8-3.9,6.5c-0.5,0.8-1.2,0.8-1.6,0c-0.9-1.5-2.4-3.9-3.9-6.5
		c-0.5-0.7-0.9-0.8-0.9,0.7v31.6c0,1-0.5,1.5-1.5,1.5h-3.9c-1,0-1.5-0.5-1.5-1.5v-45.4c0-1,0.5-1.5,1.5-1.5h3.6
		c1.3,0,1.6,0.4,2.2,1.4c1.6,2.5,3.6,5.6,4.7,7.4c0.4,0.5,0.9,0.6,1.2,0c0.8-1.3,2.8-4.6,4.7-7.4c0.6-1,1-1.4,2.2-1.4h3.6
		c1,0,1.5,0.5,1.5,1.5v45.4c0,1-0.5,1.5-1.5,1.5h-3.9c-1,0-1.5-0.5-1.5-1.5V137.4z"/>
	<path class="st0" d="M267.5,122.8c2.1,0.7,3.9,3.5,3.9,6.3v33.6c0,5.5-3,7.9-7.9,7.9h-3.4h-2.1l-0.3,1.2c-0.2,0.8-0.3,1.2-1.2,1.2
		H254c-0.8,0-1.2-0.5-1.1-1.3l0.4-1.9c-1.8-0.5-3.8-3.4-3.8-6.2V130c0-5.5,3-7.9,7.9-7.9h3.4h1.8c0.1-0.6,0.1-0.5,0.3-1.2
		c0.2-0.8,0.5-1.2,1.3-1.2h2.7c0.8,0,1.1,0.5,0.9,1.3L267.5,122.8z M260.3,129.1c-2.7,0-3.8,0.2-3.8,4.1v22c0,1.5,0.2,1.3,0.5,0
		c2.1-11.9,2.4-14.9,4.2-25.3c0.1-0.7-0.1-0.8-0.5-0.8H260.3z M264.5,159.5v-22.7c0-1.2-0.2-1.3-0.4,0.1
		c-2.7,14.8-2.9,16.5-4.5,25.6c-0.2,1.2,0.5,1.1,0.7,1.1h0.4C263.4,163.6,264.5,163.4,264.5,159.5"/>
	<path class="st0" d="M276.9,124.2c0-1.6,0.5-2.1,2.1-2.1h11.3c4.9,0,7.9,2.4,7.9,7.9v10.7c0,1.4-0.5,2.5-1,3.5
		c-0.2,0.4-0.2,0.6,0.1,1c1.1,1.2,1.9,2.7,1.9,4.8v12.7c0,5.5-3,7.9-7.9,7.9H279c-1.3,0-2.1-0.8-2.1-2.1V124.2z M285.7,129.1
		c-1.3,0-1.8,0.5-1.8,1.8v9.1c0,1.3,0.5,1.8,1.8,1.8h1.1c2.8,0,4.4-0.2,4.4-4.1v-4.5c0-3.9-1.6-4.1-4.4-4.1H285.7z M285.7,148.8
		c-1.3,0-1.8,0.5-1.8,1.8v11.1c0,1.3,0.5,1.8,1.8,1.8h2.1c2.8,0,4.4-0.2,4.4-4.1V153c0-3.5-1.4-4.1-3.8-4.1H285.7z"/>
	<path class="st0" d="M304,123.6c0-1,0.5-1.5,1.5-1.5h3.9c1,0,1.5,0.5,1.5,1.5v45.4c0,1-0.5,1.5-1.5,1.5h-3.9c-1,0-1.5-0.5-1.5-1.5
		V123.6z"/>
	<path class="st0" d="M317.1,123.6c0-1,0.5-1.5,1.5-1.5h3.9c1,0,1.5,0.5,1.5,1.5v38.2c0,1.3,0.5,1.8,1.8,1.8h6.7
		c1,0,1.5,0.5,1.5,1.5v3.9c0,1-0.5,1.5-1.5,1.5h-13.4c-1.6,0-2.1-0.5-2.1-2.1V123.6z"/>
	<path class="st0" d="M338.3,124.2c0-1.6,0.5-2.1,2.1-2.1h13.4c1,0,1.5,0.5,1.5,1.5v3.9c0,1-0.5,1.5-1.5,1.5h-6.7
		c-1.3,0-1.8,0.5-1.8,1.8v9.1c0,1.3,0.5,1.8,1.8,1.8h4.5c1,0,1.5,0.5,1.5,1.5v3.9c0,1-0.5,1.5-1.5,1.5h-4.5c-1.3,0-1.8,0.5-1.8,1.8
		v11.1c0,1.3,0.5,1.8,1.8,1.8h6.7c1,0,1.5,0.5,1.5,1.5v3.9c0,1-0.5,1.5-1.5,1.5h-13.4c-1.6,0-2.1-0.5-2.1-2.1V124.2z"/>
	<path class="st0" d="M388.1,123.5c0.1-0.8,0.5-1.4,1.4-1.4h4.7c0.8,0,1.6,0.5,1.4,1.4c-0.2,0.8-6.8,44.5-6.9,45.4
		c-0.1,1-0.5,1.7-1.7,1.7h-7.9c-1.2,0-1.6-0.7-1.7-1.7l-6.9-45.4c-0.1-0.8,0.4-1.4,1.4-1.4h4.7c0.8,0,1.3,0.5,1.4,1.4
		c1.8,12.5,2.7,19.8,4.5,31.6c0.1,0.8,0.8,0.8,1,0C386,139.7,386.3,137.1,388.1,123.5"/>
	<path class="st0" d="M400,123.6c0-1,0.5-1.5,1.5-1.5h3.9c1,0,1.5,0.5,1.5,1.5v45.4c0,1-0.5,1.5-1.5,1.5h-3.9c-1,0-1.5-0.5-1.5-1.5
		V123.6z"/>
	<path class="st0" d="M436.7,169.4c0.5,1-0.2,1.2-1.3,1.2h-4.4c-1,0-1.3-0.2-1.8-1.2l-8.4-18.8c-0.3-0.7-0.9-0.7-0.9,0.1v18.4
		c0,1-0.5,1.5-1.5,1.5h-3.9c-1,0-1.5-0.5-1.5-1.5v-45.4c0-1,0.5-1.5,1.5-1.5h3.9c1,0,1.5,0.5,1.5,1.5v16.2c0,0.8,0.6,0.9,0.9,0.2
		l7.5-16.7c0.5-1,0.8-1.2,1.8-1.2h4.4c1,0,1.7,0.3,1.2,1.2l-9.3,21c-0.3,0.7-0.3,1,0,1.7L436.7,169.4z"/>
	<path class="st0" d="M440.3,123.6c0-1,0.5-1.5,1.5-1.5h3.9c1,0,1.5,0.5,1.5,1.5v45.4c0,1-0.5,1.5-1.5,1.5h-3.9
		c-1,0-1.5-0.5-1.5-1.5V123.6z"/>
	<path class="st0" d="M459.1,122.1c1.5,0,2.3,0.6,2.7,1.9c0.7,2.6,5,17.5,7.8,27c0.4,1.5,0.8,0.7,0.8,0l-0.2-27.4
		c0-1,0.5-1.5,1.5-1.5h3.9c1,0,1.5,0.5,1.5,1.5v45.4c0,1-0.5,1.5-1.5,1.5h-4.1c-1.5,0-2.3-0.7-2.7-1.9c-0.5-1.9-4.9-18.4-7.8-28
		c-0.3-1-0.8-1-0.8,0.4v28c0,1-0.5,1.5-1.5,1.5h-3.9c-1,0-1.5-0.5-1.5-1.5v-45.4c0-1,0.5-1.5,1.5-1.5H459.1z"/>
	<path class="st0" d="M502.3,141.9c1.6,0,2.1,0.5,2.1,2.1v18.7c0,5.5-3,7.9-7.9,7.9h-6.1c-4.8,0-7.9-2.4-7.9-7.9V130
		c0-5.5,3-7.9,7.9-7.9h6.1c4.8,0,7.9,2.4,7.9,7.9v4.6c0,1-0.5,1.5-1.5,1.5H499c-1,0-1.5-0.5-1.5-1.5v-1.4c0-3.4-0.4-4.1-3.9-4.1
		c-2.7,0-3.9,0.2-3.9,4.1v26.3c0,3.9,1.3,4.1,3.9,4.1c2.4,0,3.9,0,3.9-4.1v-8.8c0-1.3-0.5-1.8-1.8-1.8h-1.5c-1,0-1.5-0.5-1.5-1.5
		v-3.9c0-1,0.5-1.5,1.5-1.5H502.3z"/>
	<path class="st0" d="M519.8,148.9h-3.3c-4.8,0-7.9-2.5-7.9-7.9v-11c0-5.5,3-7.9,7.9-7.9h6.1c4.8,0,7.9,2.4,7.9,7.9v4.6
		c0,1-0.5,1.5-1.5,1.5h-3.9c-1,0-1.5-0.5-1.5-1.5v-1.4c0-3.5-1.3-4.1-3.9-4.1c-2.6,0-4,0.7-4,4.1v4.5c0,3.9,1.7,4.1,4.4,4.1h2.7
		c4.8,0,7.9,2.4,7.9,7.9v13c0,5.5-3,7.9-7.9,7.9h-6.1c-4.8,0-7.9-2.4-7.9-7.9v-4.6c0-1,0.4-1.5,1.5-1.5h3.9c1,0,1.5,0.5,1.5,1.5v1.4
		c0,3.5,1.4,4.1,4,4.1c2.6,0,3.9-0.7,3.9-4.1V153C523.6,149.1,522.5,148.9,519.8,148.9"/>
</g>
</svg>
